<svg xmlns="http://www.w3.org/2000/svg" xmlns:xlink="http://www.w3.org/1999/xlink" width="1336" height="1387" viewBox="0 0 1336 1387">
  <defs>
    <rect id="homepage_mindfulness_background-a" width="1336" height="1387" x="0" y="0"/>
  </defs>
  <g fill="none" fill-rule="evenodd">
    <mask id="homepage_mindfulness_background-b" fill="#fff">
      <use xlink:href="#homepage_mindfulness_background-a"/>
    </mask>
    <use fill="#E1F1F9" fill-rule="nonzero" opacity=".3" xlink:href="#homepage_mindfulness_background-a"/>
    <path fill="#E1F1F9" fill-rule="nonzero" d="M1335.99979,255.632275 L1335.99979,1047.70734 C1294.98049,1063.65056 1249.35464,1077.22172 1199.08847,1088.12472 C935.866693,1145.2189 823.781412,1344.58742 605.31921,1318.69219 C435.196325,1298.52682 123.046248,1323.89045 15.062206,1190.31935 C9.92878394,1183.96955 4.90734735,1177.49763 -0.000280094868,1170.90997 L-0.000209760644,305.575966 C62.1726632,233.790529 145.714716,175.779221 252.990325,139.84869 C648.316029,7.43963038 1065.68305,57.2992935 1335.99979,255.632275 Z" mask="url(#homepage_mindfulness_background-b)" opacity=".5"/>
    <path fill="#E1F1F9" fill-rule="nonzero" d="M1.25055521e-12,886.504603 L1.25055521e-12,529.966999 C55.6839596,488.106151 136.37865,453.160608 242.803646,428.249968 C467.543303,375.645703 559.400547,265.758219 743.606311,238.703905 C894.087661,216.602698 1161.38898,211.557205 1263.08752,299.316253 C1290.36469,322.854631 1314.78671,349.274594 1336,377.79071 L1336,907.854667 C1286.0445,963.930971 1215.14223,1010.96897 1120.39583,1042.53226 C720.180887,1175.85767 276.874338,1129.22489 44.5802688,928.77063 C28.3030842,914.724507 13.4393855,900.620189 -1.09187326e-10,886.504603 Z" mask="url(#homepage_mindfulness_background-b)"/>
  </g>
</svg>
