<svg xmlns="http://www.w3.org/2000/svg" width="1163" height="1163" viewBox="0 0 1163 1163">
  <defs>
    <linearGradient id="big-circle-a" x1="50%" x2="50%" y1="0%" y2="100%">
      <stop offset="0%" stop-color="#89E5E1"/>
      <stop offset="100%" stop-color="#26C7BF"/>
    </linearGradient>
  </defs>
  <g fill="none" fill-rule="evenodd">
    <path fill="#FFF" fill-rule="nonzero" d="M604.18163,1162.97012 L602.809615,1161.59811 L611.958858,1152.44886 L621.1081,1161.59811 L619.784598,1162.92161 C616.575561,1162.9738 613.360071,1163 610.138462,1163 C608.150487,1163 606.164843,1162.99002 604.181577,1162.97012 L604.18163,1162.97012 Z M648.392116,1161.76182 C642.710533,1162.13078 637.006707,1162.41815 631.281797,1162.62276 L630.257343,1161.59811 L639.406585,1152.44886 L648.555828,1161.59811 L648.392116,1161.76182 Z M625.682722,1138.725 L634.831964,1147.87424 L625.682722,1157.02348 L616.533479,1147.87424 L625.682722,1138.725 Z" opacity=".1"/>
    <circle cx="581.5" cy="581.5" r="581.5" fill="url(#big-circle-a)" fill-rule="nonzero"/>
    <path fill="#FFF" fill-rule="nonzero" d="M1162.99893 582.627964C1162.9889 587.912041 1162.90839 593.179568 1162.75829 598.429665L1154.97765 590.649243 1162.99893 582.627964zM1162.27465 610.79997C1162.04649 615.397542 1161.76494 619.981061 1161.4306 624.549919L1154.97765 618.09697 1162.27465 610.79997zM1150.40303 595.223864L1159.55227 604.373106 1150.40303 613.522349 1141.25379 604.373106 1150.40303 595.223864zM1008.8664 975.839446C1005.93933 979.010085 1002.97742 982.148079 999.981287 985.252819L992.018095 977.289627 1001.16734 968.140385 1008.8664 975.839446zM995.462802 989.883577C992.433599 992.953904 989.370491 995.990696 986.274086 998.993346L978.294231 991.013491 987.443473 981.864248 995.462802 989.883577zM575.543168 1162.97012L574.171154 1161.59811 583.320396 1152.44886 592.469639 1161.59811 591.146136 1162.92161C587.9371 1162.9738 584.721609 1163 581.5 1163 579.512026 1163 577.526382 1162.99002 575.543115 1162.97012L575.543168 1162.97012zM619.753655 1161.76182C614.072072 1162.13078 608.368245 1162.41815 602.643336 1162.62276L601.618881 1161.59811 610.768124 1152.44886 619.917366 1161.59811 619.753655 1161.76182zM597.04426 1138.725L606.193503 1147.87424 597.04426 1157.02348 587.895018 1147.87424 597.04426 1138.725zM521.167337 464.140385L530.31658 473.289627 521.167337 482.43887 512.018095 473.289627 521.167337 464.140385zM534.891201 477.864248L544.040443 487.013491 534.891201 496.162733 525.741958 487.013491 534.891201 477.864248zM507.443473 477.864248L516.592716 487.013491 507.443473 496.162733 498.294231 487.013491 507.443473 477.864248zM521.167337 491.588112L530.31658 500.737355 521.167337 509.886597 512.018095 500.737355 521.167337 491.588112zM741.503817 208.331791L750.653059 217.481033 741.503817 226.630276 732.354574 217.481033 741.503817 208.331791zM755.227681 222.055655L764.376923 231.204897 755.227681 240.35414 746.078438 231.204897 755.227681 222.055655zM727.779953 222.055655L736.929196 231.204897 727.779953 240.35414 718.630711 231.204897 727.779953 222.055655zM741.503817 235.779518L750.653059 244.928761 741.503817 254.078003 732.354574 244.928761 741.503817 235.779518z" opacity=".1"/>
    <polygon fill="#FFF" fill-rule="nonzero" points="437.433 138.621 450.837 138.621 450.837 153.812 437.433 153.812 437.433 167.216 422.241 167.216 422.241 153.812 408.837 153.812 408.837 138.621 422.241 138.621 422.241 125.216 437.433 125.216" opacity=".1"/>
    <polygon fill="#FFF" fill-rule="nonzero" points="345.719 357.943 359.123 357.943 359.123 373.134 345.719 373.134 345.719 386.538 330.527 386.538 330.527 373.134 317.123 373.134 317.123 357.943 330.527 357.943 330.527 344.538 345.719 344.538" opacity=".1"/>
    <path fill="#FFF" fill-rule="nonzero" d="M255.876923 220.546154C245.10737 220.546154 236.376923 211.815706 236.376923 201.046154 236.376923 190.276601 245.10737 181.546154 255.876923 181.546154 266.646476 181.546154 275.376923 190.276601 275.376923 201.046154 275.376923 211.815706 266.646476 220.546154 255.876923 220.546154zM255.876923 214.341608C263.2198 214.341608 269.172378 208.389031 269.172378 201.046154 269.172378 193.703277 263.2198 187.750699 255.876923 187.750699 248.534046 187.750699 242.581469 193.703277 242.581469 201.046154 242.581469 208.389031 248.534046 214.341608 255.876923 214.341608zM165.507692 429.715385C154.73814 429.715385 146.007692 420.984937 146.007692 410.215385 146.007692 399.445832 154.73814 390.715385 165.507692 390.715385 176.277245 390.715385 185.007692 399.445832 185.007692 410.215385 185.007692 420.984937 176.277245 429.715385 165.507692 429.715385zM165.507692 423.510839C172.850569 423.510839 178.803147 417.558261 178.803147 410.215385 178.803147 402.872508 172.850569 396.91993 165.507692 396.91993 158.164816 396.91993 152.212238 402.872508 152.212238 410.215385 152.212238 417.558261 158.164816 423.510839 165.507692 423.510839zM518.861538 312.946154C508.091986 312.946154 499.361538 304.215706 499.361538 293.446154 499.361538 282.676601 508.091986 273.946154 518.861538 273.946154 529.631091 273.946154 538.361538 282.676601 538.361538 293.446154 538.361538 304.215706 529.631091 312.946154 518.861538 312.946154zM518.861538 306.741608C526.204415 306.741608 532.156993 300.789031 532.156993 293.446154 532.156993 286.103277 526.204415 280.150699 518.861538 280.150699 511.518662 280.150699 505.566084 286.103277 505.566084 293.446154 505.566084 300.789031 511.518662 306.741608 518.861538 306.741608zM69.0442601 610.725L78.1935026 619.874243 69.0442601 629.023485 59.8950176 619.874243 69.0442601 610.725zM82.7681238 624.448864L91.9173663 633.598106 82.7681238 642.747349 73.6188813 633.598106 82.7681238 624.448864zM55.3203963 624.448864L64.4696388 633.598106 55.3203963 642.747349 46.1711538 633.598106 55.3203963 624.448864zM69.0442601 638.172727L78.1935026 647.32197 69.0442601 656.471212 59.8950176 647.32197 69.0442601 638.172727zM473.167337 968.140385L482.31658 977.289627 473.167337 986.43887 464.018095 977.289627 473.167337 968.140385zM486.891201 981.864248L496.040443 991.013491 486.891201 1000.16273 477.741958 991.013491 486.891201 981.864248zM459.443473 981.864248L468.592716 991.013491 459.443473 1000.16273 450.294231 991.013491 459.443473 981.864248zM473.167337 995.588112L482.31658 1004.73735 473.167337 1013.8866 464.018095 1004.73735 473.167337 995.588112zM696.880799 957.715385L706.030041 966.864627 696.880799 976.01387 687.731556 966.864627 696.880799 957.715385zM710.604662 971.439248L719.753905 980.588491 710.604662 989.737733 701.45542 980.588491 710.604662 971.439248zM683.156935 971.439248L692.306177 980.588491 683.156935 989.737733 674.007692 980.588491 683.156935 971.439248zM696.880799 985.163112L706.030041 994.312355 696.880799 1003.4616 687.731556 994.312355 696.880799 985.163112z" opacity=".1"/>
    <polygon fill="#FFF" fill-rule="nonzero" points="469.433 642.621 482.837 642.621 482.837 657.812 469.433 657.812 469.433 671.216 454.241 671.216 454.241 657.812 440.837 657.812 440.837 642.621 454.241 642.621 454.241 629.216 469.433 629.216" opacity=".1"/>
    <polygon fill="#FFF" fill-rule="nonzero" points="345.719 885.943 359.123 885.943 359.123 901.134 345.719 901.134 345.719 914.538 330.527 914.538 330.527 901.134 317.123 901.134 317.123 885.943 330.527 885.943 330.527 872.538 345.719 872.538" opacity=".1"/>
    <path fill="#FFF" fill-rule="nonzero" d="M255.876923 748.546154C245.10737 748.546154 236.376923 739.815706 236.376923 729.046154 236.376923 718.276601 245.10737 709.546154 255.876923 709.546154 266.646476 709.546154 275.376923 718.276601 275.376923 729.046154 275.376923 739.815706 266.646476 748.546154 255.876923 748.546154zM255.876923 742.341608C263.2198 742.341608 269.172378 736.389031 269.172378 729.046154 269.172378 721.703277 263.2198 715.750699 255.876923 715.750699 248.534046 715.750699 242.581469 721.703277 242.581469 729.046154 242.581469 736.389031 248.534046 742.341608 255.876923 742.341608zM275.376923 563.833452C264.60737 563.833452 255.876923 555.103005 255.876923 544.333452 255.876923 533.5639 264.60737 524.833452 275.376923 524.833452 286.146476 524.833452 294.876923 533.5639 294.876923 544.333452 294.876923 555.103005 286.146476 563.833452 275.376923 563.833452zM275.376923 557.628907C282.7198 557.628907 288.672378 551.676329 288.672378 544.333452 288.672378 536.990576 282.7198 531.037998 275.376923 531.037998 268.034046 531.037998 262.081469 536.990576 262.081469 544.333452 262.081469 551.676329 268.034046 557.628907 275.376923 557.628907zM165.507692 957.715385C154.73814 957.715385 146.007692 948.984937 146.007692 938.215385 146.007692 927.445832 154.73814 918.715385 165.507692 918.715385 176.277245 918.715385 185.007692 927.445832 185.007692 938.215385 185.007692 948.984937 176.277245 957.715385 165.507692 957.715385zM165.507692 951.510839C172.850569 951.510839 178.803147 945.558261 178.803147 938.215385 178.803147 930.872508 172.850569 924.91993 165.507692 924.91993 158.164816 924.91993 152.212238 930.872508 152.212238 938.215385 152.212238 945.558261 158.164816 951.510839 165.507692 951.510839zM518.861538 840.946154C508.091986 840.946154 499.361538 832.215706 499.361538 821.446154 499.361538 810.676601 508.091986 801.946154 518.861538 801.946154 529.631091 801.946154 538.361538 810.676601 538.361538 821.446154 538.361538 832.215706 529.631091 840.946154 518.861538 840.946154zM518.861538 834.741608C526.204415 834.741608 532.156993 828.789031 532.156993 821.446154 532.156993 814.103277 526.204415 808.150699 518.861538 808.150699 511.518662 808.150699 505.566084 814.103277 505.566084 821.446154 505.566084 828.789031 511.518662 834.741608 518.861538 834.741608zM597.04426 82.725L606.193503 91.8742425 597.04426 101.023485 587.895018 91.8742425 597.04426 82.725zM610.768124 96.4488637L619.917366 105.598106 610.768124 114.747349 601.618881 105.598106 610.768124 96.4488637zM583.320396 96.4488637L592.469639 105.598106 583.320396 114.747349 574.171154 105.598106 583.320396 96.4488637zM597.04426 110.172727L606.193503 119.32197 597.04426 128.471212 587.895018 119.32197 597.04426 110.172727zM1001.16734 440.140385L1010.31658 449.289627 1001.16734 458.43887 992.018095 449.289627 1001.16734 440.140385zM1014.8912 453.864248L1024.04044 463.013491 1014.8912 472.162733 1005.74196 463.013491 1014.8912 453.864248zM987.443473 453.864248L996.592716 463.013491 987.443473 472.162733 978.294231 463.013491 987.443473 453.864248zM1001.16734 467.588112L1010.31658 476.737355 1001.16734 485.886597 992.018095 476.737355 1001.16734 467.588112z" opacity=".1"/>
    <polygon fill="#FFF" fill-rule="nonzero" points="965.433 138.621 978.837 138.621 978.837 153.812 965.433 153.812 965.433 167.216 950.241 167.216 950.241 153.812 936.837 153.812 936.837 138.621 950.241 138.621 950.241 125.216 965.433 125.216" opacity=".1"/>
    <polygon fill="#FFF" fill-rule="nonzero" points="873.719 357.943 887.123 357.943 887.123 373.134 873.719 373.134 873.719 386.538 858.527 386.538 858.527 373.134 845.123 373.134 845.123 357.943 858.527 357.943 858.527 344.538 873.719 344.538" opacity=".1"/>
    <path fill="#FFF" fill-rule="nonzero" d="M693.507692 429.715385C682.73814 429.715385 674.007692 420.984937 674.007692 410.215385 674.007692 399.445832 682.73814 390.715385 693.507692 390.715385 704.277245 390.715385 713.007692 399.445832 713.007692 410.215385 713.007692 420.984937 704.277245 429.715385 693.507692 429.715385zM693.507692 423.510839C700.850569 423.510839 706.803147 417.558261 706.803147 410.215385 706.803147 402.872508 700.850569 396.91993 693.507692 396.91993 686.164816 396.91993 680.212238 402.872508 680.212238 410.215385 680.212238 417.558261 686.164816 423.510839 693.507692 423.510839zM518.861538 312.946154C508.091986 312.946154 499.361538 304.215706 499.361538 293.446154 499.361538 282.676601 508.091986 273.946154 518.861538 273.946154 529.631091 273.946154 538.361538 282.676601 538.361538 293.446154 538.361538 304.215706 529.631091 312.946154 518.861538 312.946154zM518.861538 306.741608C526.204415 306.741608 532.156993 300.789031 532.156993 293.446154 532.156993 286.103277 526.204415 280.150699 518.861538 280.150699 511.518662 280.150699 505.566084 286.103277 505.566084 293.446154 505.566084 300.789031 511.518662 306.741608 518.861538 306.741608zM1046.86154 312.946154C1036.09199 312.946154 1027.36154 304.215706 1027.36154 293.446154 1027.36154 282.676601 1036.09199 273.946154 1046.86154 273.946154 1057.63109 273.946154 1066.36154 282.676601 1066.36154 293.446154 1066.36154 304.215706 1057.63109 312.946154 1046.86154 312.946154zM1046.86154 306.741608C1054.20442 306.741608 1060.15699 300.789031 1060.15699 293.446154 1060.15699 286.103277 1054.20442 280.150699 1046.86154 280.150699 1039.51866 280.150699 1033.56608 286.103277 1033.56608 293.446154 1033.56608 300.789031 1039.51866 306.741608 1046.86154 306.741608z" opacity=".1"/>
    <polygon fill="#FFF" fill-rule="nonzero" points="965.433 666.621 978.837 666.621 978.837 681.812 965.433 681.812 965.433 695.216 950.241 695.216 950.241 681.812 936.837 681.812 936.837 666.621 950.241 666.621 950.241 653.216 965.433 653.216" opacity=".1"/>
    <polygon fill="#FFF" fill-rule="nonzero" points="789.973 538.238 803.377 538.238 803.377 553.429 789.973 553.429 789.973 566.833 774.781 566.833 774.781 553.429 761.377 553.429 761.377 538.238 774.781 538.238 774.781 524.833 789.973 524.833" opacity=".1"/>
    <polygon fill="#FFF" fill-rule="nonzero" points="873.719 885.943 887.123 885.943 887.123 901.134 873.719 901.134 873.719 914.538 858.527 914.538 858.527 901.134 845.123 901.134 845.123 885.943 858.527 885.943 858.527 872.538 873.719 872.538" opacity=".1"/>
    <path fill="#FFF" fill-rule="nonzero" d="M783.876923 748.546154C773.10737 748.546154 764.376923 739.815706 764.376923 729.046154 764.376923 718.276601 773.10737 709.546154 783.876923 709.546154 794.646476 709.546154 803.376923 718.276601 803.376923 729.046154 803.376923 739.815706 794.646476 748.546154 783.876923 748.546154zM783.876923 742.341608C791.2198 742.341608 797.172378 736.389031 797.172378 729.046154 797.172378 721.703277 791.2198 715.750699 783.876923 715.750699 776.534046 715.750699 770.581469 721.703277 770.581469 729.046154 770.581469 736.389031 776.534046 742.341608 783.876923 742.341608zM606.861538 824.946154C596.091986 824.946154 587.361538 816.215706 587.361538 805.446154 587.361538 794.676601 596.091986 785.946154 606.861538 785.946154 617.631091 785.946154 626.361538 794.676601 626.361538 805.446154 626.361538 816.215706 617.631091 824.946154 606.861538 824.946154zM606.861538 818.741608C614.204415 818.741608 620.156993 812.789031 620.156993 805.446154 620.156993 798.103277 614.204415 792.150699 606.861538 792.150699 599.518662 792.150699 593.566084 798.103277 593.566084 805.446154 593.566084 812.789031 599.518662 818.741608 606.861538 818.741608zM1046.86154 840.946154C1036.09199 840.946154 1027.36154 832.215706 1027.36154 821.446154 1027.36154 810.676601 1036.09199 801.946154 1046.86154 801.946154 1057.63109 801.946154 1066.36154 810.676601 1066.36154 821.446154 1066.36154 832.215706 1057.63109 840.946154 1046.86154 840.946154zM1046.86154 834.741608C1054.20442 834.741608 1060.15699 828.789031 1060.15699 821.446154 1060.15699 814.103277 1054.20442 808.150699 1046.86154 808.150699 1039.51866 808.150699 1033.56608 814.103277 1033.56608 821.446154 1033.56608 828.789031 1039.51866 834.741608 1046.86154 834.741608zM1046.86154 312.946154C1036.09199 312.946154 1027.36154 304.215706 1027.36154 293.446154 1027.36154 282.676601 1036.09199 273.946154 1046.86154 273.946154 1057.63109 273.946154 1066.36154 282.676601 1066.36154 293.446154 1066.36154 304.215706 1057.63109 312.946154 1046.86154 312.946154zM1046.86154 306.741608C1054.20442 306.741608 1060.15699 300.789031 1060.15699 293.446154 1060.15699 286.103277 1054.20442 280.150699 1046.86154 280.150699 1039.51866 280.150699 1033.56608 286.103277 1033.56608 293.446154 1033.56608 300.789031 1039.51866 306.741608 1046.86154 306.741608z" opacity=".1"/>
  </g>
</svg>
