<svg height="36" viewBox="0 0 36 36" width="36" xmlns="http://www.w3.org/2000/svg"><g fill="none"><path d="m36 18c0 9.9411677-8.0588323 18-18 18-9.94116767 0-18-8.0588323-18-18 0-9.94116767 8.05883233-18 18-18 9.9411677 0 18 8.05883233 18 18" fill="#36cbc4"/><path d="m18.142273 14.0746865-10.23883786.0053513c0 4.4581622 2.09505405 4.3737568.28167567 7.9754595-1.81313513 3.6014595 1.98243239 3.5569459 0 8.3357027 0 0 1.62048649 2.9782703 9.95716219 2.9782703zm.0000973.0000486 10.1347297.0053514c0 4.4581621-2.0753514 4.3737567-.2792432 7.9754594 1.7961081 3.6014595-1.9634595 3.556946 0 8.3357027 0 0-1.5971352 2.9782703-9.8554865 2.9782703z" fill="#c96c37"/><path d="m26.0814013 34.0882668c-2.4300787 1.2230565-5.1753115 1.9117332-8.0814013 1.9117332-2.8421082 0-5.5303642-.6586861-7.9204398-1.83173.323409-1.4381317.7697434-3.3098793.9974695-4.3108186.199946-.8917298 1.2957568-1.7172973 2.3412162-2.3237028.928946-.538054 1.8204325-.5815945 2.0028649-.6516486.0240811-.0111892.035027-.0153243.035027-.0153243h5.2664595s.0109459.0041351.0352703.0153243c.1821892.0700541 1.0739189.1135946 2.0028648.6516486 1.0454595.6064055 2.1412703 1.431973 2.3412162 2.3237028.2235263.9824793.6576717 2.8039431.9794527 4.2308154z" fill="#333"/><path d="m20.7379216 26.8675054-2.6484324 4.2433784-2.6484324-4.2433784s1.6462702-.4906216 1.6462702-1.989v-5.2350811h1.9469189s.065919 3.9753243.0574055 5.1776757c-.0107028 1.4604324 1.6462702 2.0464054 1.6462702 2.0464054" fill="#e3a771"/><path d="m18.1422486 8.23346757c-6.3.03575675-7.7621351 4.45718923-7.7621351 7.80908103 0 3.3518919 3.501973 6.8674865 7.7621351 7.4507838 4.4452703-.7572162 7.7623784-4.0988919 7.7623784-7.4507838 0-3.3518918-1.4623784-7.84483779-7.7623784-7.80908103" fill="#f2be86"/><path d="m18.142 16.463-.483 1.933h.967z" fill="#e3a771"/><path d="m7.85585676 14.0778973 1.23908108 3.2275946c7.79740536 0 14.04827026-6.9144324 14.04827026-6.9144324s.8795676 4.7145405 3.4243784 6.7337027l1.7034324-3.0468649c0-3.4611081-2.9040811-7.77137838-10.2437027-7.77137838-7.3401081 0-10.17145944 4.31027028-10.17145944 7.77137838" fill="#c96c37"/></g></svg>