<svg xmlns="http://www.w3.org/2000/svg" xmlns:xlink="http://www.w3.org/1999/xlink" width="158" height="43" viewBox="0 0 158 43">
  <defs>
    <path id="ratings-a" d="M10.4235382,16.8378951 L4.59942214,19.8998141 C4.29476542,20.0599817 3.91795092,19.94285 3.7577834,19.6381933 C3.69400385,19.5168774 3.67199511,19.3779197 3.69516439,19.2428324 L4.80747158,12.7575839 L0.167104879,7.77381366 C-0.0674433868,7.52190799 -0.0533724339,7.12755916 0.198533232,6.8930109 C0.313875217,6.78561648 0.465621786,6.7259085 0.623220436,6.7259085 L6.95261815,6.7259085 L9.85660056,0.364560419 C9.99953707,0.0514494025 10.3692366,-0.0865042931 10.6823476,0.0564322153 C10.8187883,0.118717966 10.9281901,0.228119736 10.9904758,0.364560419 L13.8944583,6.7259085 L20.223856,6.7259085 C20.5680497,6.7259085 20.8470739,7.00493268 20.8470739,7.34912645 C20.8470739,7.5067251 20.7873659,7.65847167 20.6799715,7.77381366 L16.0396048,12.7575839 L17.151912,19.2428324 C17.2100963,19.5820727 16.9822554,19.9042489 16.6430151,19.9624331 C16.5079279,19.9856024 16.3689702,19.9635937 16.2476543,19.8998141 L10.4235382,16.8378951 Z"/>
  </defs>
  <g fill="none" fill-rule="evenodd">
    <path fill="#F1F5F5" fill-rule="nonzero" d="M21.5,0 L136.5,0 C148.374122,-2.18124085e-15 158,9.62587788 158,21.5 C158,33.3741221 148.374122,43 136.5,43 L21.5,43 C9.62587788,43 1.45416056e-15,33.3741221 0,21.5 C-1.45416056e-15,9.62587788 9.62587788,2.18124085e-15 21.5,0 Z"/>
    <g transform="translate(119.786 10.786)">
      <mask id="ratings-b" fill="#fff">
        <use xlink:href="#ratings-a"/>
      </mask>
      <polygon fill="#FCB913" fill-rule="nonzero" points="-.929 -.929 11.134 -.929 18.315 20.887 -.929 21.357" mask="url(#ratings-b)"/>
      <path fill="#FCB913" fill-rule="nonzero" d="M10.4235382,16.8378951 L4.59942214,19.8998141 C4.29476542,20.0599817 3.91795092,19.94285 3.7577834,19.6381933 C3.69400385,19.5168774 3.67199511,19.3779197 3.69516439,19.2428324 L4.80747158,12.7575839 L0.167104879,7.77381366 C-0.0674433868,7.52190799 -0.0533724339,7.12755916 0.198533232,6.8930109 C0.313875217,6.78561648 0.465621786,6.7259085 0.623220436,6.7259085 L6.95261815,6.7259085 L9.85660056,0.364560419 C9.99953707,0.0514494025 10.3692366,-0.0865042931 10.6823476,0.0564322153 C10.8187883,0.118717966 10.9281901,0.228119736 10.9904758,0.364560419 L13.8944583,6.7259085 L20.223856,6.7259085 C20.5680497,6.7259085 20.8470739,7.00493268 20.8470739,7.34912645 C20.8470739,7.5067251 20.7873659,7.65847167 20.6799715,7.77381366 L16.0396048,12.7575839 L17.151912,19.2428324 C17.2100963,19.5820727 16.9822554,19.9042489 16.6430151,19.9624331 C16.5079279,19.9856024 16.3689702,19.9635937 16.2476543,19.8998141 L10.4235382,16.8378951 Z M6.47351796,12.2605313 L5.55098585,17.6393062 L10.4235382,15.0776538 L15.2960906,17.6393062 L14.3735584,12.2605313 L18.0761328,8.28395339 L12.8929992,8.28395339 L10.4235382,2.87445053 L7.95407718,8.28395339 L2.77094365,8.28395339 L6.47351796,12.2605313 Z" mask="url(#ratings-b)"/>
    </g>
    <path fill="#FCB913" fill-rule="nonzero" d="M13.2092525,19.6236094 L7.38513643,22.6855284 C7.0804797,22.8456959 6.7036652,22.7285643 6.54349769,22.4239076 C6.47971814,22.3025917 6.4577094,22.163634 6.48087868,22.0285467 L7.59318587,15.5432982 L2.95281917,10.5595279 C2.7182709,10.3076223 2.73234185,9.91327345 2.98424752,9.67872518 C3.0995895,9.57133076 3.25133607,9.51162278 3.40893472,9.51162278 L9.73833243,9.51162278 L12.6423148,3.1502747 C12.7852514,2.83716369 13.1549509,2.69920999 13.4680619,2.8421465 C13.6045026,2.90443225 13.7139044,3.01383402 13.7761901,3.1502747 L16.6801725,9.51162278 L23.0095703,9.51162278 C23.353764,9.51162278 23.6327882,9.79064697 23.6327882,10.1348407 C23.6327882,10.2924394 23.5730802,10.444186 23.4656858,10.5595279 L18.8253191,15.5432982 L19.9376263,22.0285467 C19.9958106,22.367787 19.7679697,22.6899632 19.4287294,22.7481474 C19.2936422,22.7713167 19.1546845,22.749308 19.0333685,22.6855284 L13.2092525,19.6236094 Z" transform="translate(91 8)"/>
    <path fill="#FCB913" fill-rule="nonzero" d="M13.2092525,19.6236094 L7.38513643,22.6855284 C7.0804797,22.8456959 6.7036652,22.7285643 6.54349769,22.4239076 C6.47971814,22.3025917 6.4577094,22.163634 6.48087868,22.0285467 L7.59318587,15.5432982 L2.95281917,10.5595279 C2.7182709,10.3076223 2.73234185,9.91327345 2.98424752,9.67872518 C3.0995895,9.57133076 3.25133607,9.51162278 3.40893472,9.51162278 L9.73833243,9.51162278 L12.6423148,3.1502747 C12.7852514,2.83716369 13.1549509,2.69920999 13.4680619,2.8421465 C13.6045026,2.90443225 13.7139044,3.01383402 13.7761901,3.1502747 L16.6801725,9.51162278 L23.0095703,9.51162278 C23.353764,9.51162278 23.6327882,9.79064697 23.6327882,10.1348407 C23.6327882,10.2924394 23.5730802,10.444186 23.4656858,10.5595279 L18.8253191,15.5432982 L19.9376263,22.0285467 C19.9958106,22.367787 19.7679697,22.6899632 19.4287294,22.7481474 C19.2936422,22.7713167 19.1546845,22.749308 19.0333685,22.6855284 L13.2092525,19.6236094 Z" transform="translate(65 8)"/>
    <path fill="#FCB913" fill-rule="nonzero" d="M13.2092525,19.6236094 L7.38513643,22.6855284 C7.0804797,22.8456959 6.7036652,22.7285643 6.54349769,22.4239076 C6.47971814,22.3025917 6.4577094,22.163634 6.48087868,22.0285467 L7.59318587,15.5432982 L2.95281917,10.5595279 C2.7182709,10.3076223 2.73234185,9.91327345 2.98424752,9.67872518 C3.0995895,9.57133076 3.25133607,9.51162278 3.40893472,9.51162278 L9.73833243,9.51162278 L12.6423148,3.1502747 C12.7852514,2.83716369 13.1549509,2.69920999 13.4680619,2.8421465 C13.6045026,2.90443225 13.7139044,3.01383402 13.7761901,3.1502747 L16.6801725,9.51162278 L23.0095703,9.51162278 C23.353764,9.51162278 23.6327882,9.79064697 23.6327882,10.1348407 C23.6327882,10.2924394 23.5730802,10.444186 23.4656858,10.5595279 L18.8253191,15.5432982 L19.9376263,22.0285467 C19.9958106,22.367787 19.7679697,22.6899632 19.4287294,22.7481474 C19.2936422,22.7713167 19.1546845,22.749308 19.0333685,22.6855284 L13.2092525,19.6236094 Z" transform="translate(39 8)"/>
    <path fill="#FCB913" fill-rule="nonzero" d="M13.2092525,19.6236094 L7.38513643,22.6855284 C7.0804797,22.8456959 6.7036652,22.7285643 6.54349769,22.4239076 C6.47971814,22.3025917 6.4577094,22.163634 6.48087868,22.0285467 L7.59318587,15.5432982 L2.95281917,10.5595279 C2.7182709,10.3076223 2.73234185,9.91327345 2.98424752,9.67872518 C3.0995895,9.57133076 3.25133607,9.51162278 3.40893472,9.51162278 L9.73833243,9.51162278 L12.6423148,3.1502747 C12.7852514,2.83716369 13.1549509,2.69920999 13.4680619,2.8421465 C13.6045026,2.90443225 13.7139044,3.01383402 13.7761901,3.1502747 L16.6801725,9.51162278 L23.0095703,9.51162278 C23.353764,9.51162278 23.6327882,9.79064697 23.6327882,10.1348407 C23.6327882,10.2924394 23.5730802,10.444186 23.4656858,10.5595279 L18.8253191,15.5432982 L19.9376263,22.0285467 C19.9958106,22.367787 19.7679697,22.6899632 19.4287294,22.7481474 C19.2936422,22.7713167 19.1546845,22.749308 19.0333685,22.6855284 L13.2092525,19.6236094 Z" transform="translate(13 8)"/>
  </g>
</svg>
