<svg height="56" viewBox="0 0 56 56" width="56" xmlns="http://www.w3.org/2000/svg"><g fill="none"><path d="m0 12.159793c0-6.71566822 5.44591337-12.159793 12.159793-12.159793h31.680414c6.7156682 0 12.159793 5.44591337 12.159793 12.159793v31.680414c0 6.7156682-5.4459134 12.159793-12.159793 12.159793h-31.680414c-6.71566822 0-12.159793-5.4459134-12.159793-12.159793z" fill="#f1693c"/><g transform="translate(12.895 9.579)"><path d="m27.3323125 21.0899296c0-.4267601.2488304-.6803258.6623482-.6803258 0 0 1.9809554-.0005659 2.3139286-.0005659.4337232 0 .6388214-.3229001.5355803-.7544712-.0196517-.0905591-2.0792142-7.8879869-2.0792142-7.8879869-1.5583036-6.78854205-7.2396072-11.7664666-14.2170983-11.7664666-7.98139281 0-14.5478571 6.61563059-14.5478571 14.7758611 0 4.9439648 2.32721429 9.3193879 5.92625893 12.593385v7.1519107l13.63944647 2.2685073v-6.1201021c0-.7340953.4265267-1.1169908 1.0908125-1.1169908 0 0 5.4814642-.001132 5.5550892-.001132.6166786 0 1.1207054-.5125083 1.1207054-1.1430266v-.0059429z" fill="#fff"/><path d="m4.57587679 12.6654928c-.43925893-.0795223-.84447322-.4660968-1.00694643-.8308805-.22724107-.5105273-.19817857-1.0643532.00276785-1.6028973.19928572-.53175217.554125-.91776064 1.06617858-1.15491248.453375-.21111607.92086607-.25950863 1.38199107-.12366987-.19983929-.30790119-.2925625-.66391194-.30861607-1.04963741-.02269643-.56090088.15804464-1.0519014.54194642-1.47243556.38058036-.4165722.85111608-.63731018 1.41271429-.66136496.50236607-.02122481.96542857.13017881 1.34379464.43808-.0794375-.36251969-.05258928-.71824744.07113393-1.08727607.17852679-.53033716.52174107-.9200246 1.03019643-1.16934533.5026429-.24564175 1.0196786-.27563948 1.5511071-.08857819.4744108.16696848.84475.46807773 1.0872143.89653582.0559107-.37016062.218384-.70494657.4669375-1.00237685.3565-.4270431.8159643-.66023297 1.3775625-.7012676.5557857-.04018563 1.047634.12565085 1.4744375.49977344.3861161.33704992.6227679.75616909.6919643 1.25141457.1832322-.32856.4506072-.58552165.7907768-.77286594.4821607-.26686656.9925536-.31525912 1.5314554-.14630967.5325357.16810047.932491.50345241 1.1995892 1.01030078.2396965.45505984.3052947.92625054.1962411 1.4127231.2895179-.23432186.6338393-.3721416 1.0182947-.41713819.544991-.06367442 1.0365625.08631421 1.4747142.4493999.4323393.35827472.6814465.82323948.7437233 1.39432826.0553571.5043014-.0617233.97294512-.3299286 1.37734843.1829553-.06027845.3769821-.0880122.5801428-.0880122 1.0459733 0 1.8940447.86682109 1.8940447 1.93626832 0 .8922909-.5873393 1.643366-1.3905714 1.8677829.9432857.1395178 1.6712321.9706812 1.6712321 1.97419 0 1.101709-.8729821 1.9869249-1.9507857 1.9869249h-9.7652768c-1.0288125.0458456-1.5469554.5951435-1.5469554 1.7143983v17.1714342l-2.3191875-.3860084.0044286-15.5642919h-2.64800891c-.79465179 0-1.43817858-.658818-1.43817858-1.4710206 0-.8054106.63273215-1.4585687 1.41797322-1.4693226l-2.98347322-.0031129c-1.12125892 0-2.03022321-.9254016-2.03022321-2.0721071 0-1.0292616.73458929-1.8822158 1.69558929-2.0460713" fill="#fcb913"/></g></g></svg>