<svg xmlns="http://www.w3.org/2000/svg" xmlns:xlink="http://www.w3.org/1999/xlink" width="681.778" height="648.039" viewBox="0 0 681.778 648.039"><defs><style>.a{fill:none;}.b,.iq{fill:#053054;}.c{fill:url(#a);}.d{fill:url(#b);}.e{fill:url(#c);}.f{fill:#fff;}.g{fill:#0063ad;}.h,.iq{opacity:0.5;}.i{clip-path:url(#d);}.j{fill:#feffff;}.k{fill:#fefeff;}.l{fill:#fefefe;}.m{fill:#fdfefe;}.n{fill:#fdfdfe;}.o{fill:#fcfdfe;}.p{fill:#fbfcfe;}.q{fill:#fbfcfd;}.r{fill:#fafbfd;}.s{fill:#f9fbfd;}.t{fill:#f9fafc;}.u{fill:#f8fafc;}.v{fill:#f7f9fc;}.w{fill:#f6f9fb;}.x{fill:#f6f8fb;}.y{fill:#f5f8fb;}.z{fill:#f5f7fb;}.aa{fill:#f4f7fb;}.ab{fill:#f4f7fa;}.ac{fill:#f3f6fa;}.ad{fill:#f2f6fa;}.ae{fill:#f2f5fa;}.af{fill:#f1f5f9;}.ag{fill:#f1f4f9;}.ah{fill:#f0f4f9;}.ai{fill:#eff4f9;}.aj{fill:#eff3f8;}.ak{fill:#eef3f8;}.al{fill:#eef2f8;}.am{fill:#edf2f8;}.an{fill:#ecf1f7;}.ao{fill:#ebf0f7;}.ap{fill:#eaf0f6;}.aq{fill:#eaeff6;}.ar{fill:#e9eff6;}.as{fill:#e8eef6;}.at{fill:#e7eef5;}.au{fill:#e7edf5;}.av{fill:#e6edf5;}.aw{fill:#e5ecf4;}.ax{fill:#e4ebf4;}.ay{fill:#e3ebf4;}.az{fill:#e2eaf3;}.ba{fill:#e1e9f3;}.bb{fill:#e0e8f2;}.bc{fill:#dfe8f2;}.bd{fill:#dfe7f2;}.be{fill:#dee7f1;}.bf{fill:#dde6f1;}.bg{fill:#dce6f1;}.bh{fill:#dce5f0;}.bi{fill:#dbe4f0;}.bj{fill:#dae4f0;}.bk{fill:#d9e3ef;}.bl{fill:#d8e3ef;}.bm{fill:#d7e2ef;}.bn{fill:#d7e1ee;}.bo{fill:#d6e1ee;}.bp{fill:#d5e0ee;}.bq{fill:#d4e0ed;}.br{fill:#d3dfed;}.bs{fill:#d2deed;}.bt{fill:#d2deec;}.bu{fill:#d1ddec;}.bv{fill:#d0dcec;}.bw{fill:#cfdceb;}.bx{fill:#cedbeb;}.by{fill:#cddbeb;}.bz{fill:#ccdaea;}.ca{fill:#ccd9ea;}.cb{fill:#cbd9e9;}.cc{fill:#cad8e9;}.cd{fill:#c9d7e9;}.ce{fill:#c8d7e8;}.cf{fill:#c7d6e8;}.cg{fill:#c6d5e8;}.ch{fill:#c5d5e7;}.ci{fill:#c4d4e7;}.cj{fill:#c3d3e6;}.ck{fill:#c2d3e6;}.cl{fill:#c1d2e6;}.cm{fill:#c1d1e5;}.cn{fill:#c0d1e5;}.co{fill:#bfd0e5;}.cp{fill:#becfe4;}.cq{fill:#bdcee4;}.cr{fill:#bccee3;}.cs{fill:#bbcde3;}.ct{fill:#bacce3;}.cu{fill:#b9cce2;}.cv{fill:#b8cbe2;}.cw{fill:#b7cae1;}.cx{fill:#b6c9e1;}.cy{fill:#b5c9e1;}.cz{fill:#b4c8e0;}.da{fill:#b3c7e0;}.db{fill:#b2c7df;}.dc{fill:#b1c6df;}.dd{fill:#b0c5de;}.de{fill:#afc4de;}.df{fill:#aec4de;}.dg{fill:#adc3dd;}.dh{fill:#acc2dd;}.di{fill:#abc1dc;}.dj{fill:#aac1dc;}.dk{fill:#a9c0dc;}.dl{fill:#a8bfdb;}.dm{fill:#a7bedb;}.dn{fill:#a6beda;}.do{fill:#a5bdda;}.dp{fill:#a4bcd9;}.dq{fill:#a3bbd9;}.dr{fill:#a1bad8;}.ds{fill:#a0bad8;}.dt{fill:#9fb9d8;}.du{fill:#9eb8d7;}.dv{fill:#9db7d7;}.dw{fill:#9cb6d6;}.dx{fill:#9bb6d6;}.dy{fill:#9ab5d5;}.dz{fill:#99b4d5;}.ea{fill:#98b3d4;}.eb{fill:#97b2d4;}.ec{fill:#96b2d4;}.ed{fill:#94b1d3;}.ee{fill:#93b0d3;}.ef{fill:#92afd2;}.eg{fill:#91aed2;}.eh{fill:#90aed1;}.ei{fill:#8fadd1;}.ej{fill:#8eacd0;}.ek{fill:#8dabd0;}.el{fill:#8caacf;}.em{fill:#8aa9cf;}.en{fill:#89a9cf;}.eo{fill:#88a8ce;}.ep{fill:#87a7ce;}.eq{fill:#86a6cd;}.er{fill:#85a5cd;}.es{fill:#84a4cc;}.et{fill:#82a4cc;}.eu{fill:#81a3cb;}.ev{fill:#80a2cb;}.ew{fill:#7fa1ca;}.ex{fill:#7ea0ca;}.ey{fill:#7d9fc9;}.ez{fill:#7b9ec9;}.fa{fill:#7a9ec8;}.fb{fill:#799dc8;}.fc{fill:#789cc7;}.fd{fill:#779bc7;}.fe{fill:#759ac6;}.ff{fill:#7499c6;}.fg{fill:#7398c5;}.fh{fill:#7297c5;}.fi{fill:#7197c4;}.fj{fill:#6f96c4;}.fk{fill:#6e95c3;}.fl{fill:#6d94c3;}.fm{fill:#6c93c2;}.fn{fill:#6b92c2;}.fo{fill:#6991c1;}.fp{fill:#6890c1;}.fq{fill:#678fc0;}.fr{fill:#668fc0;}.fs{fill:#648ebf;}.ft{fill:#638dbf;}.fu{fill:#628cbe;}.fv{fill:#618bbe;}.fw{fill:#5f8abd;}.fx{fill:#5e89bd;}.fy{fill:#5d88bc;}.fz{fill:#5c87bc;}.ga{fill:#5a86bb;}.gb{fill:#5985bb;}.gc{fill:#5884ba;}.gd{fill:#5784ba;}.ge{fill:#5583b9;}.gf{fill:#5482b9;}.gg{fill:#5381b8;}.gh{fill:#5280b8;}.gi{fill:#507fb7;}.gj{fill:#4f7eb7;}.gk{fill:#4e7db6;}.gl{fill:#4c7cb5;}.gm{fill:#4b7bb5;}.gn{fill:#4a7ab4;}.go{fill:#4979b4;}.gp{fill:#4778b3;}.gq{fill:#4677b3;}.gr{fill:#4576b2;}.gs{fill:#4375b2;}.gt{fill:#4274b1;}.gu{fill:#4173b1;}.gv{fill:#3f72b0;}.gw{fill:#3e72b0;}.gx{fill:#3d71af;}.gy{fill:#3b70ae;}.gz{fill:#3a6fae;}.ha{fill:#396ead;}.hb{fill:#376dad;}.hc{fill:#366cac;}.hd{fill:#356bac;}.he{fill:#336aab;}.hf{fill:#3269ab;}.hg{fill:#3168aa;}.hh{fill:#2f67aa;}.hi{fill:#2e66a9;}.hj{fill:#2d65a8;}.hk{fill:#2b64a8;}.hl{fill:#2a63a7;}.hm{fill:#2962a7;}.hn{fill:#2761a6;}.ho{fill:#2660a6;}.hp{fill:#255fa5;}.hq{fill:#235ea4;}.hr{fill:#225da4;}.hs{fill:#205ca3;}.ht{fill:#1f5ba3;}.hu{fill:#1e5aa2;}.hv{fill:#1c59a2;}.hw{fill:#1b58a1;}.hx{fill:#1957a0;}.hy{fill:#1856a0;}.hz{fill:#17559f;}.ia{fill:#15549f;}.ib{fill:#14539e;}.ic{fill:#12529e;}.id{fill:#11519d;}.ie{fill:#104f9c;}.if{fill:#0e4e9c;}.ig{fill:#0d4d9b;}.ih{fill:#0b4c9b;}.ii{fill:#0a4b9a;}.ij{fill:#094a9a;}.ik{fill:#074999;}.il{fill:#064898;}.im{fill:#044798;}.in{fill:#034697;}.io{fill:#014597;}.ip{fill:#004496;}.ir{fill:url(#e);}.is{fill:url(#f);}.it{fill:url(#g);}.iu{fill:url(#h);}.iv{fill:#dde1ed;}</style><radialGradient id="a" cx="-1615.902" cy="-1654.122" r="422.113" gradientTransform="translate(-858.947 -848.691) scale(0.577 0.577)" gradientUnits="userSpaceOnUse"><stop offset="0" stop-color="#fcb454"/><stop offset="1" stop-color="#ff962e"/></radialGradient><linearGradient id="b" x1="0.068" y1="0.106" x2="0.916" y2="0.88" gradientUnits="objectBoundingBox"><stop offset="0" stop-color="#3a9bd5"/><stop offset="0.305" stop-color="#3a9bd5"/><stop offset="0.356" stop-color="#3a9bd5"/><stop offset="0.599" stop-color="#3999d3"/><stop offset="0.688" stop-color="#3592cf"/><stop offset="0.752" stop-color="#2f86c7"/><stop offset="0.804" stop-color="#2675bb"/><stop offset="0.81" stop-color="#2573ba"/></linearGradient><linearGradient id="c" x1="6.663" y1="-2.366" x2="7.221" y2="-1.856" gradientUnits="objectBoundingBox"><stop offset="0" stop-color="#59bdef"/><stop offset="1" stop-color="#7bdaff"/></linearGradient><clipPath id="d"><path class="a" d="M771.512,404.973l-100.856,66.9L343.6,309.211l100.856-66.9Z" transform="translate(-343.601 -242.313)"/></clipPath><linearGradient id="e" x1="9.89" y1="-8.23" x2="8.855" y2="-8.458" xlink:href="#c"/><linearGradient id="f" x1="0.869" y1="0.196" x2="-0.035" y2="0.627" xlink:href="#c"/><linearGradient id="g" x1="0.52" y1="0.401" x2="-0.761" y2="0.78" xlink:href="#c"/><linearGradient id="h" x1="0" y1="0.5" x2="1" y2="0.5" xlink:href="#c"/></defs><g transform="translate(-302.662 -130.036)"><path class="b" d="M540.449,238.626c-7.745-4.468-21.27-3.908-30.213,1.253L310.06,355.5c-8.943,5.164-9.915,12.973-2.17,17.444l339.2,195.837,246.2-57.026a88.41,88.41,0,0,0,54.277-38.077Z" transform="translate(0 202.753)"/><path class="c" d="M422.36,405.608l230.558-53.07a13.2,13.2,0,0,1,16.1,11.573L681.5,491.03a13.2,13.2,0,0,1-17.407,13.779L421.522,421.822A8.441,8.441,0,0,1,422.36,405.608Z" transform="translate(289.895 -40.592)"/><g transform="translate(302.662 363.212)"><path class="d" d="M984.44,459.86l-41.24-7.178L540.449,220.152c-7.745-4.471-21.27-3.911-30.213,1.253L323.666,329.168l-21-3.656,0,21.334.021,0c-.018,2.853,1.682,5.584,5.207,7.617L746.653,607.786c7.745,4.471,21.27,3.911,30.213-1.253L977.043,490.917c4.965-2.868,7.462-6.551,7.386-10.023h.012Z" transform="translate(-302.661 -195.942)"/><path class="e" d="M977.043,483.659,776.866,599.275c-8.943,5.164-22.467,5.724-30.213,1.253L307.89,347.207c-7.745-4.471-6.773-12.278,2.17-17.441L510.237,214.146c8.943-5.161,22.467-5.721,30.213-1.253L979.213,466.214C986.955,470.686,985.985,478.495,977.043,483.659Z" transform="translate(-302.662 -209.877)"/><path class="f" d="M977.028,396.476,776.852,512.1c-8.943,5.163-22.467,5.724-30.213,1.253L307.876,260.028c-2.926-1.688-4.6-3.855-5.082-6.177-.613,3.312,1.028,6.565,5.082,8.9L746.639,516.076c7.745,4.471,21.27,3.911,30.213-1.253L977.028,399.207c5.563-3.213,8.037-7.447,7.249-11.267C983.719,390.954,981.289,394.017,977.028,396.476Z" transform="translate(-302.647 -125.426)"/><path class="g" d="M373.756,231.421l-30.893,17.835a5.03,5.03,0,0,1-4.53.187l-.315-.181c-1.162-.672-1.016-1.843.327-2.617l30.89-17.835a5.036,5.036,0,0,1,4.533-.187l.313.181C375.242,229.473,375.1,230.647,373.756,231.421Z" transform="translate(-236.267 -174.746)"/></g><g class="h" transform="translate(422.225 457.941)"><g transform="translate(0 0)"><g class="i"><rect class="f" width="427.911" height="229.559"/><ellipse class="f" cx="50.828" cy="171.932" rx="50.828" ry="171.932" transform="translate(36.785 86.06) rotate(-64.601)"/><ellipse class="f" cx="50.629" cy="171.258" rx="50.629" ry="171.258" transform="translate(37.48 86.169) rotate(-64.601)"/><ellipse class="f" cx="50.429" cy="170.584" rx="50.429" ry="170.584" transform="translate(38.174 86.279) rotate(-64.601)"/><ellipse class="f" cx="50.23" cy="169.91" rx="50.23" ry="169.91" transform="translate(38.869 86.388) rotate(-64.601)"/><ellipse class="j" cx="50.031" cy="169.235" rx="50.031" ry="169.235" transform="matrix(0.429, -0.903, 0.903, 0.429, 39.564, 86.497)"/><ellipse class="k" cx="49.831" cy="168.561" rx="49.831" ry="168.561" transform="matrix(0.429, -0.903, 0.903, 0.429, 40.258, 86.606)"/><ellipse class="k" cx="49.632" cy="167.887" rx="49.632" ry="167.887" transform="translate(40.953 86.715) rotate(-64.601)"/><ellipse class="l" cx="49.433" cy="167.213" rx="49.433" ry="167.213" transform="translate(41.647 86.824) rotate(-64.601)"/><ellipse class="m" cx="49.233" cy="166.538" rx="49.233" ry="166.538" transform="translate(42.342 86.933) rotate(-64.601)"/><ellipse class="n" cx="49.034" cy="165.864" rx="49.034" ry="165.864" transform="matrix(0.429, -0.903, 0.903, 0.429, 43.036, 87.043)"/><ellipse class="n" cx="48.835" cy="165.19" rx="48.835" ry="165.19" transform="translate(43.731 87.152) rotate(-64.601)"/><ellipse class="o" cx="48.636" cy="164.516" rx="48.636" ry="164.516" transform="translate(44.425 87.261) rotate(-64.601)"/><ellipse class="o" cx="48.436" cy="163.841" rx="48.436" ry="163.841" transform="translate(45.12 87.37) rotate(-64.601)"/><ellipse class="p" cx="48.237" cy="163.167" rx="48.237" ry="163.167" transform="translate(45.815 87.479) rotate(-64.601)"/><ellipse class="q" cx="48.037" cy="162.493" rx="48.037" ry="162.493" transform="translate(46.509 87.588) rotate(-64.601)"/><ellipse class="q" cx="47.838" cy="161.819" rx="47.838" ry="161.819" transform="translate(47.204 87.697) rotate(-64.601)"/><ellipse class="r" cx="47.639" cy="161.144" rx="47.639" ry="161.144" transform="matrix(0.429, -0.903, 0.903, 0.429, 47.898, 87.806)"/><ellipse class="r" cx="47.44" cy="160.47" rx="47.44" ry="160.47" transform="translate(48.593 87.916) rotate(-64.601)"/><ellipse class="s" cx="47.24" cy="159.796" rx="47.24" ry="159.796" transform="matrix(0.429, -0.903, 0.903, 0.429, 49.287, 88.025)"/><ellipse class="t" cx="47.041" cy="159.122" rx="47.041" ry="159.122" transform="matrix(0.429, -0.903, 0.903, 0.429, 49.982, 88.134)"/><ellipse class="u" cx="46.841" cy="158.447" rx="46.841" ry="158.447" transform="translate(50.677 88.243) rotate(-64.601)"/><ellipse class="u" cx="46.642" cy="157.773" rx="46.642" ry="157.773" transform="matrix(0.429, -0.903, 0.903, 0.429, 51.371, 88.352)"/><ellipse class="v" cx="46.443" cy="157.099" rx="46.443" ry="157.099" transform="matrix(0.429, -0.903, 0.903, 0.429, 52.066, 88.461)"/><ellipse class="v" cx="46.243" cy="156.425" rx="46.243" ry="156.425" transform="translate(52.76 88.57) rotate(-64.601)"/><ellipse class="w" cx="46.044" cy="155.75" rx="46.044" ry="155.75" transform="translate(53.455 88.68) rotate(-64.601)"/><ellipse class="x" cx="45.845" cy="155.076" rx="45.845" ry="155.076" transform="matrix(0.429, -0.903, 0.903, 0.429, 54.149, 88.789)"/><ellipse class="y" cx="45.646" cy="154.402" rx="45.646" ry="154.402" transform="translate(54.844 88.898) rotate(-64.601)"/><ellipse class="z" cx="45.446" cy="153.728" rx="45.446" ry="153.728" transform="translate(55.539 89.007) rotate(-64.601)"/><ellipse class="aa" cx="45.247" cy="153.054" rx="45.247" ry="153.054" transform="translate(56.233 89.116) rotate(-64.601)"/><ellipse class="ab" cx="45.048" cy="152.379" rx="45.048" ry="152.379" transform="translate(56.928 89.225) rotate(-64.601)"/><ellipse class="ac" cx="44.848" cy="151.705" rx="44.848" ry="151.705" transform="translate(57.622 89.335) rotate(-64.601)"/><ellipse class="ad" cx="44.649" cy="151.031" rx="44.649" ry="151.031" transform="matrix(0.429, -0.903, 0.903, 0.429, 58.317, 89.444)"/><ellipse class="ae" cx="44.45" cy="150.357" rx="44.45" ry="150.357" transform="translate(59.011 89.553) rotate(-64.601)"/><ellipse class="af" cx="44.25" cy="149.682" rx="44.25" ry="149.682" transform="translate(59.706 89.662) rotate(-64.601)"/><ellipse class="ag" cx="44.051" cy="149.008" rx="44.051" ry="149.008" transform="matrix(0.429, -0.903, 0.903, 0.429, 60.401, 89.771)"/><path class="ah" d="M639.829,394.225c-10.388,21.877-78.8,11.127-152.806-24.009S361.448,288.856,371.836,266.979s78.8-11.13,152.8,24.01S650.215,372.344,639.829,394.225Z" transform="translate(-291.932 -216.711)"/><ellipse class="ai" cx="43.652" cy="147.66" rx="43.652" ry="147.66" transform="translate(61.79 89.989) rotate(-64.601)"/><ellipse class="aj" cx="43.453" cy="146.985" rx="43.453" ry="146.985" transform="translate(62.484 90.098) rotate(-64.601)"/><ellipse class="ak" cx="43.254" cy="146.311" rx="43.254" ry="146.311" transform="translate(63.179 90.207) rotate(-64.601)"/><ellipse class="al" cx="43.054" cy="145.637" rx="43.054" ry="145.637" transform="translate(63.873 90.317) rotate(-64.601)"/><ellipse class="am" cx="42.855" cy="144.962" rx="42.855" ry="144.962" transform="matrix(0.429, -0.903, 0.903, 0.429, 64.568, 90.426)"/><ellipse class="an" cx="42.656" cy="144.288" rx="42.656" ry="144.288" transform="translate(65.263 90.535) rotate(-64.601)"/><ellipse class="an" cx="42.456" cy="143.614" rx="42.456" ry="143.614" transform="translate(65.957 90.644) rotate(-64.601)"/><ellipse class="ao" cx="42.257" cy="142.94" rx="42.257" ry="142.94" transform="matrix(0.429, -0.903, 0.903, 0.429, 66.652, 90.753)"/><path class="ap" d="M630.707,389.6c-9.965,20.984-75.58,10.674-146.556-23.025s-120.438-78.03-110.474-99.014,75.577-10.674,146.553,23.028S640.669,368.623,630.707,389.6Z" transform="translate(-288.291 -214.695)"/><ellipse class="aq" cx="41.858" cy="141.591" rx="41.858" ry="141.591" transform="translate(68.041 90.972) rotate(-64.601)"/><ellipse class="ar" cx="41.659" cy="140.917" rx="41.659" ry="140.917" transform="matrix(0.429, -0.903, 0.903, 0.429, 68.736, 91.08)"/><path class="as" d="M627.666,388.064c-9.822,20.686-74.5,10.522-144.471-22.7S364.471,288.443,374.29,267.76s74.5-10.523,144.471,22.7S637.488,367.381,627.666,388.064Z" transform="translate(-287.078 -214.023)"/><ellipse class="at" cx="41.261" cy="139.568" rx="41.261" ry="139.568" transform="translate(70.125 91.299) rotate(-64.601)"/><ellipse class="au" cx="41.061" cy="138.894" rx="41.061" ry="138.894" transform="matrix(0.429, -0.903, 0.903, 0.429, 70.819, 91.408)"/><ellipse class="av" cx="40.862" cy="138.22" rx="40.862" ry="138.22" transform="translate(71.514 91.517) rotate(-64.601)"/><ellipse class="aw" cx="40.662" cy="137.546" rx="40.662" ry="137.546" transform="translate(72.208 91.626) rotate(-64.601)"/><ellipse class="aw" cx="40.463" cy="136.872" rx="40.463" ry="136.872" transform="matrix(0.429, -0.903, 0.903, 0.429, 72.903, 91.735)"/><ellipse class="ax" cx="40.264" cy="136.197" rx="40.264" ry="136.197" transform="translate(73.597 91.844) rotate(-64.601)"/><ellipse class="ay" cx="40.064" cy="135.523" rx="40.064" ry="135.523" transform="translate(74.292 91.954) rotate(-64.601)"/><ellipse class="az" cx="39.865" cy="134.849" rx="39.865" ry="134.849" transform="translate(74.987 92.062) rotate(-64.601)"/><ellipse class="az" cx="39.666" cy="134.175" rx="39.666" ry="134.175" transform="translate(75.681 92.172) rotate(-64.601)"/><ellipse class="ba" cx="39.466" cy="133.5" rx="39.466" ry="133.5" transform="translate(76.376 92.281) rotate(-64.601)"/><ellipse class="bb" cx="39.267" cy="132.826" rx="39.267" ry="132.826" transform="matrix(0.429, -0.903, 0.903, 0.429, 77.07, 92.39)"/><ellipse class="bc" cx="39.068" cy="132.152" rx="39.068" ry="132.152" transform="translate(77.765 92.499) rotate(-64.601)"/><ellipse class="bd" cx="38.868" cy="131.478" rx="38.868" ry="131.478" transform="matrix(0.429, -0.903, 0.903, 0.429, 78.46, 92.608)"/><ellipse class="be" cx="38.669" cy="130.804" rx="38.669" ry="130.804" transform="translate(79.154 92.717) rotate(-64.601)"/><ellipse class="bf" cx="38.47" cy="130.129" rx="38.47" ry="130.129" transform="matrix(0.429, -0.903, 0.903, 0.429, 79.849, 92.827)"/><ellipse class="bg" cx="38.271" cy="129.455" rx="38.271" ry="129.455" transform="matrix(0.429, -0.903, 0.903, 0.429, 80.543, 92.936)"/><ellipse class="bh" cx="38.071" cy="128.781" rx="38.071" ry="128.781" transform="translate(81.238 93.045) rotate(-64.601)"/><ellipse class="bi" cx="37.872" cy="128.107" rx="37.872" ry="128.107" transform="translate(81.932 93.154) rotate(-64.601)"/><ellipse class="bj" cx="37.672" cy="127.432" rx="37.672" ry="127.432" transform="translate(82.627 93.263) rotate(-64.601)"/><ellipse class="bk" cx="37.473" cy="126.758" rx="37.473" ry="126.758" transform="matrix(0.429, -0.903, 0.903, 0.429, 83.321, 93.373)"/><ellipse class="bl" cx="37.274" cy="126.084" rx="37.274" ry="126.084" transform="translate(84.016 93.481) rotate(-64.601)"/><ellipse class="bm" cx="37.075" cy="125.409" rx="37.075" ry="125.409" transform="translate(84.711 93.591) rotate(-64.601)"/><path class="bn" d="M604.353,376.261c-8.735,18.4-66.263,9.357-128.493-20.189S370.261,287.656,379,269.26s66.263-9.36,128.5,20.189S613.088,357.862,604.353,376.261Z" transform="translate(-277.775 -208.87)"/><ellipse class="bo" cx="36.676" cy="124.061" rx="36.676" ry="124.061" transform="translate(86.1 93.809) rotate(-64.601)"/><ellipse class="bp" cx="36.477" cy="123.387" rx="36.477" ry="123.387" transform="translate(86.794 93.918) rotate(-64.601)"/><path class="bq" d="M601.314,374.721c-8.6,18.1-65.191,9.205-126.414-19.862s-103.885-67.306-95.29-85.4,65.188-9.208,126.411,19.862S609.906,356.62,601.314,374.721Z" transform="translate(-276.561 -208.198)"/><ellipse class="br" cx="36.078" cy="122.038" rx="36.078" ry="122.038" transform="matrix(0.429, -0.903, 0.903, 0.429, 88.183, 94.136)"/><ellipse class="bs" cx="35.879" cy="121.364" rx="35.879" ry="121.364" transform="translate(88.878 94.246) rotate(-64.601)"/><ellipse class="bt" cx="35.679" cy="120.69" rx="35.679" ry="120.69" transform="translate(89.572 94.355) rotate(-64.601)"/><ellipse class="bu" cx="35.48" cy="120.015" rx="35.48" ry="120.015" transform="translate(90.267 94.464) rotate(-64.601)"/><ellipse class="bv" cx="35.281" cy="119.341" rx="35.281" ry="119.341" transform="matrix(0.429, -0.903, 0.903, 0.429, 90.962, 94.573)"/><path class="bw" d="M595.23,371.642c-8.309,17.5-63.039,8.9-122.243-19.208s-100.459-65.086-92.15-82.589,63.042-8.9,122.243,19.208S603.542,354.139,595.23,371.642Z" transform="translate(-274.134 -206.853)"/><ellipse class="bx" cx="34.882" cy="117.993" rx="34.882" ry="117.993" transform="translate(92.351 94.791) rotate(-64.601)"/><ellipse class="by" cx="34.683" cy="117.318" rx="34.683" ry="117.318" transform="translate(93.045 94.9) rotate(-64.601)"/><ellipse class="bz" cx="34.483" cy="116.644" rx="34.483" ry="116.644" transform="translate(93.74 95.009) rotate(-64.601)"/><path class="ca" d="M591.177,369.586c-8.122,17.105-61.608,8.7-119.466-18.77s-98.178-63.608-90.056-80.711,61.608-8.7,119.466,18.77S599.3,352.484,591.177,369.586Z" transform="translate(-272.516 -205.957)"/><path class="cb" d="M590.165,369.073c-8.075,17.006-61.251,8.651-118.774-18.662s-97.606-63.237-89.531-80.241,61.249-8.65,118.771,18.662S598.237,352.07,590.165,369.073Z" transform="translate(-272.111 -205.733)"/><path class="cc" d="M589.15,368.56c-8.026,16.907-60.892,8.6-118.076-18.551s-97.036-62.867-89.011-79.773,60.892-8.6,118.078,18.554S597.176,351.656,589.15,368.56Z" transform="translate(-271.707 -205.509)"/><ellipse class="cd" cx="33.686" cy="113.947" rx="33.686" ry="113.947" transform="translate(96.518 95.446) rotate(-64.601)"/><ellipse class="ce" cx="33.487" cy="113.273" rx="33.487" ry="113.273" transform="translate(97.213 95.555) rotate(-64.601)"/><path class="cf" d="M586.108,367.02c-7.885,16.609-59.815,8.449-115.993-18.224s-95.322-61.76-87.437-78.366,59.818-8.446,115.993,18.227S593.993,350.414,586.108,367.02Z" transform="translate(-270.493 -204.836)"/><ellipse class="cg" cx="33.088" cy="111.924" rx="33.088" ry="111.924" transform="matrix(0.429, -0.903, 0.903, 0.429, 98.602, 95.773)"/><ellipse class="ch" cx="32.889" cy="111.25" rx="32.889" ry="111.25" transform="translate(99.296 95.882) rotate(-64.601)"/><ellipse class="ci" cx="32.689" cy="110.576" rx="32.689" ry="110.576" transform="translate(99.991 95.991) rotate(-64.601)"/><ellipse class="cj" cx="32.49" cy="109.902" rx="32.49" ry="109.902" transform="translate(100.686 96.1) rotate(-64.601)"/><path class="ck" d="M581.042,364.455c-7.652,16.109-58.027,8.195-112.521-17.678s-92.469-59.911-84.82-76.021,58.024-8.195,112.521,17.681S588.691,348.345,581.042,364.455Z" transform="translate(-268.47 -203.716)"/><ellipse class="cl" cx="32.091" cy="108.553" rx="32.091" ry="108.553" transform="translate(102.075 96.319) rotate(-64.601)"/><ellipse class="cm" cx="31.892" cy="107.879" rx="31.892" ry="107.879" transform="translate(102.769 96.428) rotate(-64.601)"/><path class="cn" d="M578,362.915c-7.509,15.812-56.953,8.043-110.436-17.351s-90.757-58.8-83.252-74.613,56.953-8.043,110.439,17.354S585.51,347.1,578,362.915Z" transform="translate(-267.258 -203.045)"/><path class="co" d="M576.986,362.4c-7.459,15.712-56.593,7.993-109.74-17.243s-90.185-58.43-82.726-74.143,56.594-7.99,109.741,17.243S584.448,346.69,576.986,362.4Z" transform="translate(-266.853 -202.82)"/><ellipse class="cp" cx="31.294" cy="105.856" rx="31.294" ry="105.856" transform="matrix(0.429, -0.903, 0.903, 0.429, 104.853, 96.756)"/><path class="cq" d="M574.959,361.376c-7.365,15.514-55.875,7.891-108.353-17.024s-89.043-57.691-81.677-73.205,55.878-7.891,108.353,17.026S582.325,345.862,574.959,361.376Z" transform="translate(-266.044 -202.373)"/><ellipse class="cr" cx="30.895" cy="104.508" rx="30.895" ry="104.508" transform="matrix(0.429, -0.903, 0.903, 0.429, 106.242, 96.974)"/><ellipse class="cs" cx="30.696" cy="103.834" rx="30.696" ry="103.834" transform="translate(106.937 97.083) rotate(-64.601)"/><ellipse class="ct" cx="30.497" cy="103.159" rx="30.497" ry="103.159" transform="translate(107.631 97.192) rotate(-64.601)"/><ellipse class="cu" cx="30.297" cy="102.485" rx="30.297" ry="102.485" transform="matrix(0.429, -0.903, 0.903, 0.429, 108.326, 97.301)"/><ellipse class="cv" cx="30.098" cy="101.811" rx="30.098" ry="101.811" transform="translate(109.02 97.41) rotate(-64.601)"/><ellipse class="cw" cx="29.899" cy="101.137" rx="29.899" ry="101.137" transform="translate(109.715 97.519) rotate(-64.601)"/><path class="cx" d="M567.863,357.783c-7.035,14.816-53.369,7.538-103.491-16.261s-85.048-55.1-78.012-69.92,53.369-7.535,103.491,16.261S574.9,342.964,567.863,357.783Z" transform="translate(-263.212 -200.804)"/><ellipse class="cy" cx="29.5" cy="99.788" rx="29.5" ry="99.788" transform="translate(111.104 97.738) rotate(-64.601)"/><ellipse class="cz" cx="29.301" cy="99.114" rx="29.301" ry="99.114" transform="matrix(0.429, -0.903, 0.903, 0.429, 111.799, 97.847)"/><ellipse class="da" cx="29.102" cy="98.44" rx="29.102" ry="98.44" transform="translate(112.493 97.956) rotate(-64.601)"/><ellipse class="db" cx="28.902" cy="97.765" rx="28.902" ry="97.765" transform="translate(113.188 98.065) rotate(-64.601)"/><ellipse class="dc" cx="28.703" cy="97.091" rx="28.703" ry="97.091" transform="translate(113.882 98.174) rotate(-64.601)"/><ellipse class="dd" cx="28.503" cy="96.417" rx="28.503" ry="96.417" transform="translate(114.577 98.283) rotate(-64.601)"/><path class="de" d="M560.771,354.191c-6.705,14.121-50.863,7.181-98.631-15.5s-81.052-52.51-74.347-66.631,50.86-7.184,98.628,15.5S567.473,340.07,560.771,354.191Z" transform="translate(-260.381 -199.235)"/><path class="df" d="M559.757,353.678c-6.659,14.021-50.5,7.132-97.933-15.388S381.341,286.147,388,272.126s50.5-7.135,97.936,15.385S566.416,339.657,559.757,353.678Z" transform="translate(-259.977 -199.012)"/><ellipse class="dg" cx="27.906" cy="94.394" rx="27.906" ry="94.394" transform="translate(116.661 98.611) rotate(-64.601)"/><ellipse class="dh" cx="27.706" cy="93.72" rx="27.706" ry="93.72" transform="translate(117.355 98.72) rotate(-64.601)"/><ellipse class="di" cx="27.507" cy="93.046" rx="27.507" ry="93.046" transform="matrix(0.429, -0.903, 0.903, 0.429, 118.05, 98.829)"/><path class="dj" d="M555.7,351.625c-6.469,13.624-49.073,6.93-95.156-14.953s-78.2-50.662-71.73-64.286,49.07-6.93,95.156,14.95S562.171,338,555.7,351.625Z" transform="translate(-258.358 -198.115)"/><ellipse class="dk" cx="27.108" cy="91.697" rx="27.108" ry="91.697" transform="matrix(0.429, -0.903, 0.903, 0.429, 119.439, 99.047)"/><ellipse class="dl" cx="26.909" cy="91.023" rx="26.909" ry="91.023" transform="translate(120.134 99.156) rotate(-64.601)"/><path class="dm" d="M552.661,350.085c-6.326,13.323-48,6.778-93.073-14.626S383.1,285.9,389.429,272.581s48-6.779,93.073,14.623S558.99,336.759,552.661,350.085Z" transform="translate(-257.145 -197.443)"/><path class="dn" d="M551.649,349.572c-6.282,13.224-47.639,6.726-92.378-14.515s-75.918-49.187-69.636-62.411,47.639-6.729,92.378,14.515S557.928,336.345,551.649,349.572Z" transform="translate(-256.74 -197.219)"/><ellipse class="do" cx="26.311" cy="89" rx="26.311" ry="89" transform="translate(122.217 99.484) rotate(-64.601)"/><path class="dp" d="M549.619,348.546c-6.183,13.025-46.921,6.626-90.988-14.3s-74.773-48.445-68.588-61.471,46.921-6.627,90.988,14.3S555.8,335.518,549.619,348.546Z" transform="translate(-255.931 -196.771)"/><path class="dq" d="M548.608,348.03c-6.139,12.929-46.564,6.577-90.293-14.185s-74.2-48.077-68.068-61,46.564-6.577,90.3,14.188S554.747,335.1,548.608,348.03Z" transform="translate(-255.528 -196.547)"/><ellipse class="dr" cx="25.713" cy="86.978" rx="25.713" ry="86.978" transform="translate(124.301 99.811) rotate(-64.601)"/><path class="ds" d="M546.58,347c-6.045,12.73-45.849,6.478-88.906-13.969s-73.062-47.335-67.017-60.063,45.846-6.475,88.9,13.969S552.622,334.276,546.58,347Z" transform="translate(-254.717 -196.099)"/><ellipse class="dt" cx="25.314" cy="85.629" rx="25.314" ry="85.629" transform="translate(125.69 100.029) rotate(-64.601)"/><ellipse class="du" cx="25.115" cy="84.955" rx="25.115" ry="84.955" transform="translate(126.385 100.139) rotate(-64.601)"/><ellipse class="dv" cx="24.916" cy="84.281" rx="24.916" ry="84.281" transform="matrix(0.429, -0.903, 0.903, 0.429, 127.079, 100.248)"/><path class="dw" d="M542.526,344.951c-5.856,12.333-44.415,6.273-86.128-13.531s-70.778-45.858-64.923-58.188,44.415-6.273,86.125,13.534S548.379,332.62,542.526,344.951Z" transform="translate(-253.1 -195.202)"/><path class="dx" d="M541.512,344.437c-5.809,12.234-44.056,6.224-85.433-13.423s-70.206-45.487-64.4-57.718,44.059-6.221,85.433,13.423S547.321,332.206,541.512,344.437Z" transform="translate(-252.696 -194.978)"/><path class="dy" d="M540.5,343.924c-5.759,12.132-43.7,6.171-84.735-13.315s-69.639-45.116-63.877-57.248,43.7-6.171,84.738,13.315S546.259,331.792,540.5,343.924Z" transform="translate(-252.291 -194.754)"/><ellipse class="dz" cx="24.118" cy="81.584" rx="24.118" ry="81.584" transform="translate(129.857 100.684) rotate(-64.601)"/><ellipse class="ea" cx="23.919" cy="80.909" rx="23.919" ry="80.909" transform="translate(130.552 100.793) rotate(-64.601)"/><ellipse class="eb" cx="23.72" cy="80.235" rx="23.72" ry="80.235" transform="translate(131.246 100.903) rotate(-64.601)"/><path class="ec" d="M536.443,341.872c-5.569,11.735-42.265,5.97-81.958-12.876S387.13,285.358,392.7,273.623s42.265-5.969,81.958,12.879S542.016,330.137,536.443,341.872Z" transform="translate(-250.673 -193.858)"/><path class="ed" d="M535.431,341.359c-5.526,11.635-41.909,5.92-81.266-12.768s-66.783-43.267-61.257-54.9,41.906-5.917,81.263,12.768S540.953,329.723,535.431,341.359Z" transform="translate(-250.268 -193.634)"/><path class="ee" d="M534.417,340.846c-5.476,11.536-41.55,5.867-80.571-12.657s-66.211-42.9-60.735-54.435,41.55-5.867,80.571,12.66S539.9,329.31,534.417,340.846Z" transform="translate(-249.864 -193.41)"/><ellipse class="ef" cx="22.922" cy="77.538" rx="22.922" ry="77.538" transform="matrix(0.429, -0.903, 0.903, 0.429, 134.025, 101.339)"/><ellipse class="eg" cx="22.723" cy="76.864" rx="22.723" ry="76.864" transform="translate(134.719 101.448) rotate(-64.601)"/><ellipse class="eh" cx="22.524" cy="76.19" rx="22.524" ry="76.19" transform="translate(135.414 101.557) rotate(-64.601)"/><ellipse class="ei" cx="22.325" cy="75.515" rx="22.325" ry="75.515" transform="translate(136.109 101.667) rotate(-64.601)"/><ellipse class="ej" cx="22.125" cy="74.841" rx="22.125" ry="74.841" transform="translate(136.803 101.776) rotate(-64.601)"/><ellipse class="ek" cx="21.926" cy="74.167" rx="21.926" ry="74.167" transform="translate(137.498 101.885) rotate(-64.601)"/><ellipse class="el" cx="21.726" cy="73.493" rx="21.726" ry="73.493" transform="translate(138.192 101.994) rotate(-64.601)"/><ellipse class="em" cx="21.527" cy="72.818" rx="21.527" ry="72.818" transform="translate(138.887 102.103) rotate(-64.601)"/><path class="en" d="M525.294,336.227c-5.052,10.639-38.326,5.412-74.318-11.676s-61.076-39.57-56.024-50.212,38.326-5.412,74.318,11.679S530.347,325.587,525.294,336.227Z" transform="translate(-246.224 -191.394)"/><ellipse class="eo" cx="21.129" cy="71.47" rx="21.129" ry="71.47" transform="matrix(0.429, -0.903, 0.903, 0.429, 140.276, 102.321)"/><path class="ep" d="M523.267,335.2c-4.956,10.441-37.61,5.312-72.93-11.46s-59.932-38.828-54.975-49.272,37.61-5.309,72.93,11.46S528.226,324.76,523.267,335.2Z" transform="translate(-245.415 -190.946)"/><path class="eq" d="M522.255,334.688c-4.912,10.341-37.254,5.26-72.236-11.349s-59.365-38.46-54.453-48.8,37.251-5.26,72.235,11.352S527.164,324.346,522.255,334.688Z" transform="translate(-245.01 -190.722)"/><path class="er" d="M521.241,334.175c-4.863,10.242-36.892,5.21-71.54-11.241s-58.792-38.089-53.93-48.334,36.894-5.21,71.54,11.241S526.1,323.932,521.241,334.175Z" transform="translate(-244.606 -190.498)"/><path class="es" d="M520.225,333.661c-4.816,10.143-36.532,5.161-70.845-11.133s-58.22-37.721-53.4-47.864,36.536-5.158,70.846,11.133S525.044,323.518,520.225,333.661Z" transform="translate(-244.201 -190.274)"/><path class="et" d="M519.214,333.148c-4.769,10.044-36.176,5.108-70.15-11.022s-57.651-37.35-52.884-47.4,36.179-5.108,70.153,11.025S523.983,323.1,519.214,333.148Z" transform="translate(-243.797 -190.05)"/><path class="eu" d="M518.2,332.635c-4.719,9.944-35.817,5.058-69.455-10.914s-57.081-36.982-52.359-46.927,35.82-5.058,69.458,10.914S522.921,322.691,518.2,332.635Z" transform="translate(-243.392 -189.826)"/><ellipse class="ev" cx="19.733" cy="66.75" rx="19.733" ry="66.75" transform="matrix(0.429, -0.903, 0.903, 0.429, 145.138, 103.085)"/><ellipse class="ew" cx="19.534" cy="66.076" rx="19.534" ry="66.076" transform="translate(145.833 103.194) rotate(-64.601)"/><path class="ex" d="M515.159,331.095c-4.582,9.646-34.745,4.906-67.373-10.587S392.417,284.635,397,274.992s34.742-4.909,67.373,10.584S519.739,321.448,515.159,331.095Z" transform="translate(-242.178 -189.153)"/><ellipse class="ey" cx="19.135" cy="64.728" rx="19.135" ry="64.728" transform="translate(147.222 103.413) rotate(-64.601)"/><ellipse class="ez" cx="18.936" cy="64.053" rx="18.936" ry="64.053" transform="translate(147.916 103.522) rotate(-64.601)"/><path class="fa" d="M512.119,329.555c-4.439,9.349-33.67,4.755-65.291-10.26s-53.652-34.763-49.216-44.108,33.67-4.755,65.291,10.257S516.557,320.206,512.119,329.555Z" transform="translate(-240.965 -188.48)"/><ellipse class="fb" cx="18.537" cy="62.705" rx="18.537" ry="62.705" transform="translate(149.305 103.74) rotate(-64.601)"/><path class="fc" d="M510.092,328.529c-4.343,9.147-32.952,4.652-63.9-10.041s-52.513-34.024-48.171-43.171,32.955-4.655,63.9,10.038S514.435,319.379,510.092,328.529Z" transform="translate(-240.157 -188.033)"/><path class="fd" d="M509.076,328.016c-4.3,9.048-32.593,4.6-63.205-9.933s-51.941-33.653-47.645-42.7,32.6-4.6,63.205,9.93S513.375,318.965,509.076,328.016Z" transform="translate(-239.751 -187.808)"/><path class="fe" d="M508.065,327.5c-4.249,8.948-32.236,4.55-62.51-9.822S394.181,284.4,398.43,275.448s32.239-4.553,62.513,9.822S512.315,318.551,508.065,327.5Z" transform="translate(-239.348 -187.585)"/><path class="ff" d="M507.05,326.99c-4.2,8.849-31.877,4.5-61.815-9.713s-50.8-32.914-46.6-41.763,31.88-4.5,61.818,9.714S511.252,318.138,507.05,326.99Z" transform="translate(-238.943 -187.361)"/><path class="fg" d="M506.037,326.476c-4.156,8.75-31.521,4.451-61.123-9.605s-50.23-32.543-46.074-41.293,31.518-4.451,61.12,9.6S510.19,317.723,506.037,326.476Z" transform="translate(-238.537 -187.137)"/><path class="fh" d="M505.023,325.963c-4.106,8.651-31.162,4.4-60.428-9.5s-49.657-32.172-45.551-40.823,31.162-4.4,60.428,9.495S509.132,317.31,505.023,325.963Z" transform="translate(-238.133 -186.913)"/><ellipse class="fi" cx="17.142" cy="57.985" rx="17.142" ry="57.985" transform="translate(154.167 104.504) rotate(-64.601)"/><ellipse class="fj" cx="16.943" cy="57.311" rx="16.943" ry="57.311" transform="translate(154.862 104.613) rotate(-64.601)"/><path class="fk" d="M501.984,324.42c-3.969,8.356-30.09,4.249-58.346-9.164s-47.946-31.065-43.98-39.418,30.087-4.249,58.343,9.167S505.95,316.068,501.984,324.42Z" transform="translate(-236.92 -186.24)"/><ellipse class="fl" cx="16.544" cy="55.962" rx="16.544" ry="55.962" transform="translate(156.251 104.831) rotate(-64.601)"/><ellipse class="fm" cx="16.345" cy="55.288" rx="16.345" ry="55.288" transform="matrix(0.429, -0.903, 0.903, 0.429, 156.946, 104.941)"/><path class="fn" d="M498.943,322.881c-3.826,8.058-29.012,4.1-56.26-8.838s-46.234-29.955-42.411-38.01,29.015-4.1,56.26,8.84S502.766,314.826,498.943,322.881Z" transform="translate(-235.707 -185.568)"/><ellipse class="fo" cx="15.946" cy="53.939" rx="15.946" ry="53.939" transform="translate(158.335 105.159) rotate(-64.601)"/><ellipse class="fp" cx="15.747" cy="53.265" rx="15.747" ry="53.265" transform="matrix(0.429, -0.903, 0.903, 0.429, 159.029, 105.268)"/><path class="fq" d="M495.9,321.341c-3.683,7.757-27.937,3.946-54.175-8.51s-44.523-28.846-40.84-36.6,27.937-3.946,54.178,8.513S499.583,313.585,495.9,321.341Z" transform="translate(-234.493 -184.896)"/><path class="fr" d="M494.888,320.829c-3.636,7.658-27.581,3.9-53.483-8.4s-43.951-28.475-40.315-36.132,27.578-3.9,53.48,8.4S498.524,313.171,494.888,320.829Z" transform="translate(-234.088 -184.672)"/><path class="fs" d="M493.874,320.315c-3.589,7.558-27.222,3.846-52.788-8.294s-43.381-28.1-39.792-35.662,27.222-3.844,52.788,8.294S497.463,312.76,493.874,320.315Z" transform="translate(-233.684 -184.448)"/><ellipse class="ft" cx="14.949" cy="50.568" rx="14.949" ry="50.568" transform="translate(161.808 105.705) rotate(-64.601)"/><path class="fu" d="M491.847,319.289c-3.493,7.36-26.506,3.744-51.4-8.075S398.21,283.849,401.7,276.489s26.506-3.744,51.4,8.075S495.34,311.933,491.847,319.289Z" transform="translate(-232.876 -184)"/><path class="fv" d="M490.832,318.776c-3.446,7.26-26.147,3.694-50.7-7.967s-41.667-26.994-38.22-34.255,26.147-3.692,50.7,7.967S494.281,311.519,490.832,318.776Z" transform="translate(-232.47 -183.776)"/><path class="fw" d="M489.821,318.263c-3.4,7.161-25.791,3.642-50.011-7.856s-41.1-26.626-37.7-33.787,25.791-3.642,50.011,7.859S493.22,311.1,489.821,318.263Z" transform="translate(-232.067 -183.552)"/><path class="fx" d="M488.8,317.749c-3.353,7.062-25.429,3.592-49.312-7.748s-40.528-26.255-37.175-33.317,25.432-3.592,49.315,7.748S492.158,310.69,488.8,317.749Z" transform="translate(-231.661 -183.328)"/><ellipse class="fy" cx="13.953" cy="47.197" rx="13.953" ry="47.197" transform="translate(165.281 106.25) rotate(-64.601)"/><ellipse class="fz" cx="13.754" cy="46.523" rx="13.754" ry="46.523" transform="matrix(0.429, -0.903, 0.903, 0.429, 165.975, 106.359)"/><path class="ga" d="M485.766,316.21c-3.213,6.764-24.357,3.44-47.23-7.421s-38.816-25.146-35.6-31.91,24.357-3.44,47.23,7.421S488.975,309.449,485.766,316.21Z" transform="translate(-230.448 -182.656)"/><path class="gb" d="M484.752,315.7c-3.163,6.662-24,3.391-46.535-7.313s-38.244-24.777-35.081-31.439,24-3.388,46.538,7.313S487.915,309.035,484.752,315.7Z" transform="translate(-230.044 -182.431)"/><path class="gc" d="M483.739,315.183c-3.116,6.563-23.641,3.338-45.843-7.2s-37.671-24.41-34.555-30.972,23.638-3.338,45.84,7.2S486.855,308.621,483.739,315.183Z" transform="translate(-229.639 -182.207)"/><path class="gd" d="M482.725,314.671c-3.069,6.463-23.282,3.289-45.148-7.094s-37.1-24.036-34.032-30.5,23.282-3.288,45.148,7.094S485.794,308.207,482.725,314.671Z" transform="translate(-229.235 -181.984)"/><path class="ge" d="M481.71,314.157c-3.02,6.364-22.923,3.239-44.45-6.983S400.727,283.5,403.75,277.14s22.923-3.236,44.453,6.986S484.732,307.793,481.71,314.157Z" transform="translate(-228.83 -181.759)"/><ellipse class="gf" cx="12.557" cy="42.477" rx="12.557" ry="42.477" transform="translate(170.142 107.014) rotate(-64.601)"/><path class="gg" d="M479.682,313.131c-2.926,6.165-22.207,3.137-43.063-6.767s-35.388-22.929-32.461-29.094,22.208-3.137,43.063,6.767S482.612,306.966,479.682,313.131Z" transform="translate(-228.021 -181.312)"/><ellipse class="gh" cx="12.159" cy="41.129" rx="12.159" ry="41.129" transform="matrix(0.429, -0.903, 0.903, 0.429, 171.531, 107.232)"/><path class="gi" d="M477.656,312.1c-2.833,5.967-21.489,3.034-41.672-6.548s-34.249-22.19-31.416-28.156,21.492-3.035,41.675,6.548S480.489,306.138,477.656,312.1Z" transform="translate(-227.212 -180.864)"/><path class="gj" d="M476.643,311.591c-2.786,5.867-21.133,2.985-40.981-6.44s-33.676-21.819-30.89-27.686,21.133-2.982,40.977,6.44S479.429,305.724,476.643,311.591Z" transform="translate(-226.807 -180.639)"/><path class="gk" d="M475.629,311.078c-2.74,5.768-20.773,2.932-40.285-6.329s-33.107-21.451-30.367-27.219,20.776-2.932,40.285,6.332S478.369,305.311,475.629,311.078Z" transform="translate(-226.403 -180.415)"/><path class="gl" d="M474.617,310.566c-2.693,5.669-20.417,2.883-39.59-6.221s-32.537-21.08-29.845-26.749,20.417-2.883,39.59,6.221S477.307,304.9,474.617,310.566Z" transform="translate(-225.998 -180.192)"/><path class="gm" d="M473.6,310.052c-2.643,5.569-20.058,2.833-38.9-6.113s-31.965-20.709-29.322-26.279,20.058-2.833,38.9,6.113S476.246,304.482,473.6,310.052Z" transform="translate(-225.594 -179.967)"/><path class="gn" d="M472.59,309.538c-2.6,5.47-19.7,2.78-38.2-6s-31.392-20.341-28.8-25.811,19.7-2.78,38.2,6S475.186,304.068,472.59,309.538Z" transform="translate(-225.189 -179.743)"/><path class="go" d="M471.576,309.025c-2.55,5.371-19.343,2.731-37.508-5.894s-30.823-19.97-28.273-25.341,19.342-2.731,37.508,5.894S474.126,303.655,471.576,309.025Z" transform="translate(-224.786 -179.519)"/><path class="gp" d="M470.56,308.512c-2.5,5.271-18.983,2.681-36.81-5.786S403.5,283.127,406,277.858s18.983-2.681,36.813,5.782S473.063,303.24,470.56,308.512Z" transform="translate(-224.38 -179.294)"/><path class="gq" d="M469.549,308c-2.456,5.169-18.627,2.628-36.118-5.675s-29.681-19.231-27.228-24.4,18.627-2.631,36.118,5.674S472.005,302.826,469.549,308Z" transform="translate(-223.977 -179.07)"/><path class="gr" d="M468.534,307.486c-2.407,5.07-18.268,2.579-35.423-5.566s-29.111-18.861-26.7-23.933,18.268-2.579,35.423,5.567S470.943,302.413,468.534,307.486Z" transform="translate(-223.572 -178.847)"/><ellipse class="gs" cx="9.966" cy="33.712" rx="9.966" ry="33.712" transform="matrix(0.429, -0.903, 0.903, 0.429, 179.172, 108.433)"/><path class="gt" d="M466.507,306.459c-2.313,4.871-17.549,2.477-34.033-5.348S404.5,282.99,406.818,278.119s17.552-2.479,34.036,5.347S468.82,301.585,466.507,306.459Z" transform="translate(-222.763 -178.398)"/><path class="gu" d="M465.494,305.946c-2.266,4.772-17.193,2.427-33.34-5.239s-27.4-17.751-25.131-22.523,17.193-2.43,33.338,5.236S467.76,301.171,465.494,305.946Z" transform="translate(-222.358 -178.175)"/><path class="gv" d="M464.48,305.433c-2.22,4.673-16.834,2.377-32.645-5.131s-26.828-17.38-24.608-22.053,16.837-2.377,32.645,5.128S466.7,300.757,464.48,305.433Z" transform="translate(-221.954 -177.95)"/><path class="gw" d="M463.468,304.92c-2.173,4.573-16.478,2.325-31.95-5.02s-26.258-17.012-24.085-21.585,16.475-2.328,31.95,5.02S465.637,300.344,463.468,304.92Z" transform="translate(-221.549 -177.727)"/><path class="gx" d="M462.453,304.407c-2.126,4.474-16.118,2.275-31.255-4.912s-25.686-16.641-23.562-21.115,16.118-2.278,31.255,4.909S464.579,299.93,462.453,304.407Z" transform="translate(-221.145 -177.503)"/><path class="gy" d="M461.438,303.893c-2.076,4.375-15.759,2.225-30.56-4.8s-25.113-16.27-23.037-20.645,15.759-2.225,30.56,4.8S463.517,299.515,461.438,303.893Z" transform="translate(-220.74 -177.278)"/><path class="gz" d="M460.427,303.38c-2.03,4.276-15.4,2.173-29.868-4.693s-24.544-15.9-22.514-20.178,15.4-2.176,29.868,4.693S462.457,299.1,460.427,303.38Z" transform="translate(-220.336 -177.054)"/><path class="ha" d="M459.411,302.867c-1.983,4.176-15.043,2.123-29.17-4.585s-23.974-15.531-21.991-19.708,15.043-2.126,29.173,4.582S461.394,298.688,459.411,302.867Z" transform="translate(-219.931 -176.83)"/><path class="hb" d="M458.4,302.353c-1.936,4.077-14.687,2.073-28.478-4.474s-23.4-15.163-21.466-19.24,14.684-2.073,28.475,4.474S460.335,298.273,458.4,302.353Z" transform="translate(-219.526 -176.606)"/><path class="hc" d="M457.385,301.838c-1.887,3.981-14.328,2.024-27.783-4.363s-22.833-14.792-20.943-18.77,14.328-2.024,27.783,4.363S459.275,297.863,457.385,301.838Z" transform="translate(-219.122 -176.382)"/><path class="hd" d="M456.372,301.325c-1.843,3.881-13.969,1.974-27.09-4.255s-22.26-14.421-20.417-18.3,13.969-1.974,27.088,4.255S458.212,297.446,456.372,301.325Z" transform="translate(-218.717 -176.158)"/><path class="he" d="M455.358,300.814c-1.793,3.776-13.609,1.922-26.392-4.15s-21.69-14.051-19.9-17.83,13.612-1.922,26.4,4.147S457.151,297.035,455.358,300.814Z" transform="translate(-218.313 -175.934)"/><path class="hf" d="M454.345,300.3c-1.749,3.68-13.253,1.872-25.7-4.036S407.527,282.58,409.273,278.9s13.253-1.872,25.7,4.036S456.092,296.621,454.345,300.3Z" transform="translate(-217.908 -175.71)"/><path class="hg" d="M453.331,299.785c-1.7,3.581-12.894,1.822-25.005-3.928s-20.548-13.311-18.849-16.892,12.9-1.822,25.005,3.928S455.031,296.208,453.331,299.785Z" transform="translate(-217.505 -175.486)"/><path class="hh" d="M452.316,299.272c-1.65,3.481-12.535,1.773-24.307-3.82s-19.979-12.941-18.326-16.422,12.535-1.77,24.31,3.82S453.969,295.794,452.316,299.272Z" transform="translate(-217.099 -175.262)"/><path class="hi" d="M451.3,298.759c-1.606,3.382-12.178,1.72-23.615-3.709s-19.407-12.573-17.8-15.955,12.178-1.72,23.615,3.709S452.911,295.38,451.3,298.759Z" transform="translate(-216.695 -175.038)"/><path class="hj" d="M450.289,298.246c-1.557,3.283-11.819,1.67-22.92-3.6s-18.837-12.2-17.278-15.484,11.819-1.67,22.92,3.6S451.849,294.966,450.289,298.246Z" transform="translate(-216.291 -174.814)"/><ellipse class="hk" cx="6.379" cy="21.576" rx="6.379" ry="21.576" transform="translate(191.674 110.397) rotate(-64.601)"/><path class="hl" d="M448.262,297.22c-1.463,3.084-11.1,1.568-21.53-3.382s-17.7-11.466-16.232-14.547,11.1-1.568,21.533,3.382S449.725,294.139,448.262,297.22Z" transform="translate(-215.481 -174.366)"/><path class="hm" d="M447.25,296.706c-1.417,2.985-10.748,1.519-20.838-3.274s-17.123-11.1-15.706-14.077,10.745-1.519,20.835,3.274S448.666,293.724,447.25,296.706Z" transform="translate(-215.076 -174.141)"/><path class="hn" d="M446.236,296.193c-1.37,2.885-10.388,1.469-20.143-3.163s-16.553-10.724-15.184-13.609,10.388-1.466,20.143,3.166S447.605,293.311,446.236,296.193Z" transform="translate(-214.673 -173.918)"/><path class="ho" d="M445.223,295.68c-1.323,2.786-10.029,1.416-19.451-3.055s-15.981-10.356-14.658-13.139,10.029-1.417,19.448,3.055S446.543,292.9,445.223,295.68Z" transform="translate(-214.268 -173.693)"/><path class="hp" d="M444.209,295.167c-1.273,2.687-9.67,1.367-18.752-2.947s-15.411-9.985-14.138-12.669,9.673-1.367,18.755,2.947S445.485,292.483,444.209,295.167Z" transform="translate(-213.864 -173.47)"/><path class="hq" d="M443.2,294.653c-1.23,2.588-9.314,1.314-18.06-2.836s-14.842-9.617-13.612-12.2,9.314-1.314,18.057,2.839S444.423,292.068,443.2,294.653Z" transform="translate(-213.459 -173.245)"/><path class="hr" d="M442.182,294.14c-1.18,2.485-8.954,1.265-17.365-2.728s-14.269-9.246-13.09-11.732,8.957-1.265,17.365,2.728S443.362,291.655,442.182,294.14Z" transform="translate(-213.055 -173.021)"/><path class="hs" d="M441.167,293.627c-1.133,2.386-8.6,1.215-16.667-2.62s-13.7-8.875-12.567-11.261,8.595-1.215,16.67,2.62S442.3,291.241,441.167,293.627Z" transform="translate(-212.65 -172.798)"/><path class="ht" d="M440.155,293.114c-1.086,2.287-8.239,1.162-15.975-2.509s-13.128-8.507-12.044-10.794,8.239-1.162,15.975,2.512S441.242,290.827,440.155,293.114Z" transform="translate(-212.246 -172.573)"/><path class="hu" d="M439.14,292.6c-1.037,2.187-7.879,1.113-15.28-2.4s-12.558-8.136-11.518-10.324,7.88-1.113,15.28,2.4S440.18,290.413,439.14,292.6Z" transform="translate(-211.841 -172.35)"/><path class="hv" d="M438.127,292.088c-.993,2.088-7.523,1.063-14.588-2.293s-11.986-7.766-10.993-9.854,7.52-1.063,14.585,2.293S439.117,290,438.127,292.088Z" transform="translate(-211.436 -172.126)"/><path class="hw" d="M437.113,291.575c-.943,1.989-7.164,1.01-13.89-2.182s-11.416-7.4-10.473-9.386,7.164-1.01,13.893,2.184S438.059,289.586,437.113,291.575Z" transform="translate(-211.032 -171.901)"/><path class="hx" d="M436.1,291.062c-.9,1.89-6.808.961-13.2-2.073s-10.847-7.027-9.947-8.916,6.8-.961,13.195,2.073S437,289.172,436.1,291.062Z" transform="translate(-210.627 -171.678)"/><path class="hy" d="M435.087,290.548c-.85,1.79-6.448.911-12.5-1.965s-10.274-6.656-9.424-8.446,6.448-.908,12.5,1.965S435.937,288.758,435.087,290.548Z" transform="translate(-210.223 -171.453)"/><path class="hz" d="M434.074,290.035c-.8,1.691-6.089.861-11.808-1.854s-9.7-6.288-8.9-7.979,6.089-.859,11.807,1.854S434.874,288.344,434.074,290.035Z" transform="translate(-209.818 -171.229)"/><path class="ia" d="M433.06,289.522c-.756,1.592-5.73.809-11.112-1.747s-9.132-5.917-8.379-7.509,5.733-.809,11.115,1.747S433.816,287.931,433.06,289.522Z" transform="translate(-209.414 -171.006)"/><path class="ib" d="M432.045,289.008c-.707,1.492-5.371.759-10.417-1.638s-8.563-5.546-7.854-7.038,5.374-.759,10.417,1.638S432.754,287.516,432.045,289.008Z" transform="translate(-209.009 -170.781)"/><path class="ic" d="M431.033,288.495c-.66,1.393-5.015.707-9.725-1.527s-7.99-5.178-7.331-6.571,5.015-.707,9.725,1.53S431.693,287.1,431.033,288.495Z" transform="translate(-208.606 -170.557)"/><path class="id" d="M430.018,287.982c-.613,1.294-4.655.657-9.027-1.419s-7.421-4.807-6.808-6.1,4.655-.657,9.03,1.419S430.634,286.688,430.018,287.982Z" transform="translate(-208.201 -170.333)"/><path class="ie" d="M429.005,287.469c-.567,1.194-4.3.607-8.335-1.308s-6.849-4.439-6.282-5.634,4.3-.607,8.332,1.311S429.572,286.275,429.005,287.469Z" transform="translate(-207.795 -170.109)"/><path class="if" d="M427.991,286.956c-.52,1.092-3.94.555-7.64-1.2s-6.279-4.068-5.759-5.163,3.94-.555,7.64,1.2S428.511,285.86,427.991,286.956Z" transform="translate(-207.392 -169.885)"/><path class="ig" d="M426.978,286.443c-.473.993-3.583.505-6.948-1.092s-5.707-3.7-5.234-4.693,3.581-.505,6.945,1.092S427.448,285.447,426.978,286.443Z" transform="translate(-206.987 -169.661)"/><path class="ih" d="M425.964,285.929c-.423.894-3.224.456-6.25-.981s-5.137-3.329-4.714-4.226,3.224-.453,6.253.984S426.391,285.033,425.964,285.929Z" transform="translate(-206.583 -169.437)"/><path class="ii" d="M424.952,285.416c-.38.794-2.868.4-5.558-.873s-4.568-2.958-4.188-3.753,2.865-.406,5.555.87S425.328,284.619,424.952,285.416Z" transform="translate(-206.178 -169.212)"/><path class="ij" d="M423.938,284.9c-.33.7-2.506.353-4.863-.765s-4-2.587-3.665-3.286,2.509-.353,4.863.765S424.268,284.206,423.938,284.9Z" transform="translate(-205.774 -168.989)"/><path class="ik" d="M422.922,284.389c-.283.6-2.147.3-4.165-.654s-3.426-2.219-3.142-2.815,2.15-.3,4.168.654S423.205,283.791,422.922,284.389Z" transform="translate(-205.369 -168.764)"/><path class="il" d="M421.911,283.877c-.237.5-1.79.251-3.473-.546s-2.853-1.849-2.62-2.348,1.793-.251,3.475.546S422.147,283.378,421.911,283.877Z" transform="translate(-204.965 -168.541)"/><path class="im" d="M420.9,283.364c-.187.4-1.431.2-2.777-.438s-2.284-1.478-2.094-1.875,1.434-.2,2.777.435S421.085,282.967,420.9,283.364Z" transform="translate(-204.56 -168.317)"/><path class="in" d="M419.883,282.85c-.143.3-1.075.152-2.085-.327s-1.711-1.11-1.568-1.408,1.072-.152,2.082.327S420.023,282.552,419.883,282.85Z" transform="translate(-204.155 -168.092)"/><path class="io" d="M418.869,282.336c-.093.2-.715.1-1.387-.219s-1.142-.739-1.048-.937.716-.1,1.39.216S418.965,282.138,418.869,282.336Z" transform="translate(-203.751 -167.868)"/><path class="ip" d="M417.856,281.823c-.047.1-.359.05-.7-.111s-.572-.368-.523-.467.356-.053.692.108S417.9,281.724,417.856,281.823Z" transform="translate(-203.346 -167.644)"/></g></g></g><g transform="translate(420.29 130.036)"><path class="iq" d="M421.778,212.894c-7.745-4.471-21.27-3.908-30.213,1.253l-27.111,15.66,142.78,82.434c4.793,2.769,13.163,2.421,18.694-.774l33.291-19.22Z" transform="translate(-301.619 23.298)"/><path class="f" d="M881.046,243.614l-3.5,2.766c-.07-.041-.128-.088-.2-.128L684.5,134.91c-5.476-3.163-15.043-2.766-21.366.885L348.17,317.643a15.534,15.534,0,0,0-1.98,1.352l-3.25-2.386v7.9l.018-.012c-.053,2.053,1.148,4.021,3.68,5.485L539.483,441.317c5.476,3.163,15.043,2.766,21.366-.885L875.816,258.587c3.461-2,5.222-4.559,5.219-6.986l.011.012Z" transform="translate(-342.938 -124.776)"/><path class="ir" d="M875.816,255.845,560.849,437.693c-6.323,3.651-15.89,4.048-21.366.885L346.637,327.237c-5.479-3.16-4.79-8.683,1.533-12.336L663.137,133.056c6.323-3.651,15.891-4.048,21.366-.885L877.349,243.509C882.825,246.672,882.139,252.195,875.816,255.845Z" transform="translate(-342.939 -130.036)"/><g transform="translate(187.55 108.281)"><path class="f" d="M474.516,215.156l-60.372,34.856-6.987-4.034,60.372-34.856Z" transform="translate(-407.157 -82.592)"/><path class="f" d="M499.925,200.486l-60.372,34.856-6.987-4.034,60.372-34.856Z" transform="translate(-358.359 -110.765)"/><path class="f" d="M525.334,185.816l-60.372,34.856-6.986-4.034,60.372-34.856Z" transform="translate(-309.561 -138.939)"/><path class="f" d="M550.743,171.146,490.371,206l-6.986-4.033,60.372-34.856Z" transform="translate(-260.763 -167.112)"/></g></g><g transform="translate(395.467 209.925)"><path class="f" d="M651.454,299.852l-105.418-61.38c-20.885-12.059-40.577-13.966-55.457-5.383s-23.069,26.6-23.069,50.714v7.725c.748.505,1.527,1,2.325,1.484V283.8c0-23.247,7.78-40.542,21.907-48.7s33-6.244,53.133,5.38l105.418,61.38a1.162,1.162,0,0,0,1.162-2.012Z" transform="translate(-78.877 -22.173)"/><path class="f" d="M516.921,361.949V297.056c0-47.552-33.5-105.585-74.689-129.357-20.166-11.644-39.193-13.49-53.565-5.2s-22.286,25.692-22.286,48.983V228.05q1.165,1.161,2.325,2.325v-18.89c0-22.424,7.5-39.105,21.124-46.967s31.819-6.019,51.24,5.19c40.542,23.408,73.526,80.536,73.526,127.348v64.893c0,39.415,23.192,86.064,54.642,114.136v-3.119C539.032,445.207,516.921,400.132,516.921,361.949Z" transform="translate(-273.094 -157.391)"/><g transform="translate(23.386 0.428)"><path class="f" d="M568.152,474.814s-26.839-27.339-37.289-49.867-15.861-43.4-16.045-61.993-.365-5.832-.365-5.832,1.151-66.3-1.638-76.762-9.36-66.307-64.061-106.42-82,3.16-81.683,25.77,0,37.073,0,37.073,29.964,24.252,41.27,58.895,12.4,28.624,12.582,63.086.365,36.585.365,36.585-2.532,30.7,5.1,54.456,21.381,50.1,37.68,67.344,40.358,37.622,62.6,35.615,37.2-10.213,41.483-45.4Z" transform="translate(-295.163 -157.537)"/><path class="f" d="M434.634,159.141l-92.187,53.146,71.9,21.414Z" transform="translate(-342.446 -154.456)"/><path class="is" d="M542.911,255.374v10.66c-5.128-3.712-29.24-20.189-52.146-19.38-25.8.911-34.462,24.523-34.462,24.523s-6.107,17.625-5.651,25.89c.079,1.431.146,3.116.2,4.909-.143-.131-.292-.251-.435-.382v3.119c.175.158.356.3.531.453.21,7.953.275,16.7.275,16.7s.228,15.727-2,26.074c-4.013,18.6-19.763,29.155-20.975,30.805l94.6-54.464c.082-.047.172-.076.257-.126.129-.073.248-.164.377-.24l.476-.274.055-.061c13.683-8.443,21.217-25.44,21.217-48.054V256.857C544.438,256.369,543.658,255.879,542.911,255.374Z" transform="translate(-177.663 13.554)"/><path class="f" d="M442.271,288.45l96.78-56.018a48.2,48.2,0,0,1,36.462-1.364c19.961,7.3,124.544,70.048,124.544,70.048l-93.433,53.831s-108.567-67.265-121.306-70.638C459.172,277.379,442.271,288.45,442.271,288.45Z" transform="translate(-150.734 -21.944)"/></g><path class="it" d="M427.173,199.663h0c-3.814-3.627-21.615-19.328-47.59-23.3-29.415-4.5-41.57,29.9-41.57,29.9s-3.405,17.868-3.283,28.443.879,48.983.879,48.983l93.249-53.717v-.015a1.15,1.15,0,0,0,.639-1.025V201.673C428.723,200.9,427.949,200.437,427.173,199.663Z" transform="translate(-333.886 -121.732)"/><g transform="translate(0 53.735)"><path class="iu" d="M590.242,519.01c-10.283,0-21.664-3.434-33.44-10.236-40.887-23.6-74.149-81.216-74.149-128.423V315.457c0-46.81-32.984-103.94-73.526-127.351-19.421-11.206-37.616-13.052-51.24-5.19s-21.124,24.547-21.124,46.97V283a1.162,1.162,0,0,1-2.325,0V229.887c0-23.291,7.915-40.685,22.286-48.983s33.4-6.451,53.565,5.193c41.185,23.776,74.689,81.809,74.689,129.36v64.893c0,46.468,32.742,103.178,72.986,126.414,19.272,11.124,37.336,12.958,50.857,5.152s20.963-24.363,20.963-46.62V437.423c0-24.115,8.192-42.125,23.072-50.714s34.57-6.676,55.454,5.383l105.415,61.38a1.162,1.162,0,1,1-1.162,2.012L707.15,394.1c-20.134-11.624-39-13.536-53.13-5.38s-21.91,25.452-21.91,48.7V465.3c0,23.124-7.856,40.393-22.126,48.632A38.985,38.985,0,0,1,590.242,519.01Z" transform="translate(-334.439 -175.79)"/></g><g transform="translate(177.918 136.532)"><path class="iv" d="M406.827,232.441v8.387l-11.467,6.62v-8.387Z" transform="translate(-395.359 -149.789)"/><path class="iv" d="M413.975,228.314V236.7l-11.467,6.621v-8.387Z" transform="translate(-381.631 -157.716)"/><path class="iv" d="M439.864,220.47v8.387l-44.317,25.586v-8.387Z" transform="translate(-395.001 -172.78)"/><path class="iv" d="M403.145,225.3v-8.387l22.126-12.775v8.387Z" transform="translate(-380.408 -204.14)"/><path class="iv" d="M395.359,225.75v-8.387l11.467-6.621v8.387Z" transform="translate(-395.359 -191.461)"/><path class="iv" d="M395.359,235.058v-8.387L417.2,214.06v8.387Z" transform="translate(-395.359 -185.089)"/><path class="iv" d="M405.854,226.1v-8.387l14.213-8.206V217.9Z" transform="translate(-375.204 -193.83)"/><path class="iv" d="M403.145,258.742v-8.387l22.126-12.775v8.387Z" transform="translate(-380.408 -139.92)"/><path class="iv" d="M395.359,259.189V250.8l11.467-6.621v8.387Z" transform="translate(-395.359 -127.241)"/><path class="iv" d="M395.359,268.5V260.11L417.2,247.5v8.387Z" transform="translate(-395.359 -120.869)"/><path class="iv" d="M405.854,259.542v-8.387l14.213-8.206v8.387Z" transform="translate(-375.204 -129.609)"/><g transform="translate(224.017 96.311)"><path class="iv" d="M488.735,259.786l-7.264-4.194,9.782-5.648,7.264,4.193Z" transform="translate(-453.999 -212.484)"/><path class="iv" d="M493.539,255l-7.264-4.193,18.633-10.758,7.263,4.194Z" transform="translate(-444.773 -231.483)"/><path class="iv" d="M479.328,267.461l-7.264-4.194,45.292-26.15,7.264,4.194Z" transform="translate(-472.065 -237.118)"/><path class="iv" d="M494.449,267.126l-7.264-4.194,37.8-21.826,7.264,4.194Z" transform="translate(-443.024 -229.46)"/><path class="iv" d="M484.411,260.274l-7.264-4.194,18.633-10.758,7.264,4.194Z" transform="translate(-462.304 -221.361)"/></g></g></g><g transform="translate(353.273 486.031)"><path class="f" d="M333.129,261.526l-3.9,2.252-9.238-5.333,3.9-2.252Z" transform="translate(-319.992 -243.748)"/><path class="f" d="M335.589,260.106l-3.9,2.252-9.238-5.333,3.9-2.252Z" transform="translate(-315.267 -246.476)"/><path class="f" d="M338.049,258.685l-3.9,2.252-9.238-5.333,3.9-2.252Z" transform="translate(-310.543 -249.204)"/><path class="f" d="M340.509,257.265l-3.9,2.252-9.238-5.333,3.9-2.252Z" transform="translate(-305.818 -251.932)"/></g></g></svg>